<mxfile host="Electron" modified="2024-05-30T20:36:56.403Z" agent="Mozilla/5.0 (Windows NT 10.0; Win64; x64) AppleWebKit/537.36 (KHTML, like Gecko) draw.io/24.4.8 Chrome/124.0.6367.207 Electron/30.0.6 Safari/537.36" etag="0RxfMm9n5-FeVJg61MOw" version="24.4.8" type="device">
  <diagram name="Page-1" id="ssnLPN2aym7-dkhjFipf">
    <mxGraphModel dx="603" dy="361" grid="1" gridSize="10" guides="1" tooltips="1" connect="1" arrows="0" fold="1" page="1" pageScale="1" pageWidth="850" pageHeight="1100" math="0" shadow="0">
      <root>
        <mxCell id="0" />
        <mxCell id="1" parent="0" />
        <mxCell id="apA25NxOXQJsWUbe7K5H-43" style="edgeStyle=orthogonalEdgeStyle;rounded=0;orthogonalLoop=1;jettySize=auto;html=1;exitX=0;exitY=0.7416666666666667;exitDx=0;exitDy=3;exitPerimeter=0;strokeColor=#B20000;align=center;verticalAlign=middle;fontFamily=Helvetica;fontSize=11;fontColor=default;labelBackgroundColor=default;endArrow=none;endFill=0;jumpStyle=arc;endSize=6;targetPerimeterSpacing=0;fillColor=#e51400;" parent="1" source="uhNhJ5nUF2RMJIGcSitU-182" target="apA25NxOXQJsWUbe7K5H-40" edge="1">
          <mxGeometry relative="1" as="geometry" />
        </mxCell>
        <mxCell id="uhNhJ5nUF2RMJIGcSitU-219" style="edgeStyle=orthogonalEdgeStyle;rounded=0;orthogonalLoop=1;jettySize=auto;html=1;exitX=0;exitY=0.75;exitDx=0;exitDy=0;entryX=0.997;entryY=0.614;entryDx=0;entryDy=0;entryPerimeter=0;strokeColor=default;align=center;verticalAlign=middle;fontFamily=Helvetica;fontSize=11;fontColor=default;labelBackgroundColor=default;endArrow=none;endFill=0;endSize=6;targetPerimeterSpacing=0;jumpStyle=none;" parent="1" source="uhNhJ5nUF2RMJIGcSitU-193" target="uhNhJ5nUF2RMJIGcSitU-157" edge="1">
          <mxGeometry relative="1" as="geometry">
            <Array as="points">
              <mxPoint x="1420" y="600" />
              <mxPoint x="1420" y="670" />
            </Array>
          </mxGeometry>
        </mxCell>
        <mxCell id="uhNhJ5nUF2RMJIGcSitU-199" style="edgeStyle=orthogonalEdgeStyle;rounded=0;orthogonalLoop=1;jettySize=auto;html=1;exitX=0.5;exitY=0.5;exitDx=0;exitDy=0;exitPerimeter=0;entryX=0.003;entryY=0.642;entryDx=0;entryDy=0;entryPerimeter=0;strokeColor=default;align=center;verticalAlign=middle;fontFamily=Helvetica;fontSize=11;fontColor=default;labelBackgroundColor=default;endArrow=none;endFill=0;endSize=6;targetPerimeterSpacing=0;jumpStyle=arc;" parent="1" source="uhNhJ5nUF2RMJIGcSitU-198" target="uhNhJ5nUF2RMJIGcSitU-161" edge="1">
          <mxGeometry relative="1" as="geometry">
            <Array as="points">
              <mxPoint x="1440" y="680" />
            </Array>
          </mxGeometry>
        </mxCell>
        <mxCell id="apA25NxOXQJsWUbe7K5H-78" value="" style="edgeStyle=orthogonalEdgeStyle;rounded=0;orthogonalLoop=1;jettySize=auto;html=1;exitX=0.5;exitY=0.5;exitDx=0;exitDy=0;exitPerimeter=0;strokeColor=#B20000;align=center;verticalAlign=middle;fontFamily=Helvetica;fontSize=11;fontColor=default;labelBackgroundColor=default;endArrow=none;endFill=0;jumpStyle=none;entryDx=0;entryDy=3;entryPerimeter=0;endSize=6;targetPerimeterSpacing=0;fillColor=#e51400;" parent="1" source="apA25NxOXQJsWUbe7K5H-52" target="apA25NxOXQJsWUbe7K5H-79" edge="1">
          <mxGeometry relative="1" as="geometry">
            <mxPoint x="990" y="587" as="targetPoint" />
            <mxPoint x="1620" y="560" as="sourcePoint" />
            <Array as="points">
              <mxPoint x="1620" y="910" />
            </Array>
          </mxGeometry>
        </mxCell>
        <mxCell id="apA25NxOXQJsWUbe7K5H-48" value="" style="edgeStyle=orthogonalEdgeStyle;rounded=0;orthogonalLoop=1;jettySize=auto;html=1;strokeColor=#B20000;align=center;verticalAlign=middle;fontFamily=Helvetica;fontSize=11;fontColor=default;labelBackgroundColor=default;endArrow=none;endFill=0;entryDx=0;entryDy=3;entryPerimeter=0;jumpStyle=arc;endSize=6;targetPerimeterSpacing=0;fillColor=#e51400;" parent="1" target="apA25NxOXQJsWUbe7K5H-49" edge="1">
          <mxGeometry relative="1" as="geometry">
            <mxPoint x="1000" y="469" as="targetPoint" />
            <mxPoint x="1410" y="680" as="sourcePoint" />
            <Array as="points">
              <mxPoint x="1410" y="920" />
              <mxPoint x="980" y="920" />
            </Array>
          </mxGeometry>
        </mxCell>
        <mxCell id="apA25NxOXQJsWUbe7K5H-6" style="edgeStyle=orthogonalEdgeStyle;rounded=0;orthogonalLoop=1;jettySize=auto;html=1;exitX=0.5;exitY=0.5;exitDx=0;exitDy=0;exitPerimeter=0;endArrow=none;endFill=0;strokeColor=#B20000;align=center;verticalAlign=middle;fontFamily=Helvetica;fontSize=11;fontColor=default;labelBackgroundColor=default;endSize=6;targetPerimeterSpacing=0;fillColor=#e51400;jumpStyle=arc;" parent="1" source="apA25NxOXQJsWUbe7K5H-5" target="uhNhJ5nUF2RMJIGcSitU-215" edge="1">
          <mxGeometry relative="1" as="geometry">
            <Array as="points">
              <mxPoint x="1420" y="950" />
            </Array>
          </mxGeometry>
        </mxCell>
        <mxCell id="uhNhJ5nUF2RMJIGcSitU-4" style="edgeStyle=orthogonalEdgeStyle;rounded=0;orthogonalLoop=1;jettySize=auto;html=1;exitX=0;exitY=0.4583333333333333;exitDx=0;exitDy=0;exitPerimeter=0;endArrow=none;endFill=0;targetPerimeterSpacing=0;endSize=6;flowAnimation=0;entryX=0;entryY=0.5;entryDx=0;entryDy=0;" parent="1" source="uhNhJ5nUF2RMJIGcSitU-1" target="uhNhJ5nUF2RMJIGcSitU-15" edge="1">
          <mxGeometry relative="1" as="geometry">
            <mxPoint x="168" y="585" as="targetPoint" />
          </mxGeometry>
        </mxCell>
        <mxCell id="uhNhJ5nUF2RMJIGcSitU-1" value="PC&lt;div&gt;MUX&lt;/div&gt;" style="shadow=0;dashed=0;align=center;html=1;strokeWidth=1;shape=mxgraph.electrical.abstract.mux2;operation=demux;whiteSpace=wrap;direction=west;" parent="1" vertex="1">
          <mxGeometry x="100" y="520" width="40" height="120" as="geometry" />
        </mxCell>
        <mxCell id="uhNhJ5nUF2RMJIGcSitU-21" style="edgeStyle=orthogonalEdgeStyle;rounded=0;orthogonalLoop=1;jettySize=auto;html=1;exitX=1;exitY=0.5;exitDx=0;exitDy=0;strokeColor=default;align=center;verticalAlign=middle;fontFamily=Helvetica;fontSize=11;fontColor=default;labelBackgroundColor=default;endArrow=none;endFill=0;endSize=6;targetPerimeterSpacing=0;" parent="1" source="uhNhJ5nUF2RMJIGcSitU-15" target="uhNhJ5nUF2RMJIGcSitU-20" edge="1">
          <mxGeometry relative="1" as="geometry" />
        </mxCell>
        <mxCell id="apA25NxOXQJsWUbe7K5H-83" style="edgeStyle=orthogonalEdgeStyle;rounded=0;orthogonalLoop=1;jettySize=auto;html=1;exitX=0.5;exitY=0;exitDx=0;exitDy=0;strokeColor=#00578a;align=center;verticalAlign=middle;fontFamily=Helvetica;fontSize=11;fontColor=#00578a;labelBackgroundColor=none;endArrow=none;endFill=0;endSize=6;targetPerimeterSpacing=0;fillColor=#8cc6e3;" parent="1" source="uhNhJ5nUF2RMJIGcSitU-15" target="apA25NxOXQJsWUbe7K5H-57" edge="1">
          <mxGeometry relative="1" as="geometry">
            <Array as="points">
              <mxPoint x="185" y="150" />
            </Array>
          </mxGeometry>
        </mxCell>
        <mxCell id="apA25NxOXQJsWUbe7K5H-85" value="PCWrite" style="edgeLabel;html=1;align=center;verticalAlign=middle;resizable=0;points=[];fontFamily=Helvetica;fontSize=9;fontColor=#00578a;labelBackgroundColor=default;strokeColor=default;fillColor=default;gradientColor=none;" parent="apA25NxOXQJsWUbe7K5H-83" vertex="1" connectable="0">
          <mxGeometry x="-0.27" y="-1" relative="1" as="geometry">
            <mxPoint as="offset" />
          </mxGeometry>
        </mxCell>
        <mxCell id="uhNhJ5nUF2RMJIGcSitU-15" value="PC" style="rounded=0;whiteSpace=wrap;html=1;fontFamily=Helvetica;fontSize=11;fontColor=default;labelBackgroundColor=default;" parent="1" vertex="1">
          <mxGeometry x="170" y="555" width="30" height="60" as="geometry" />
        </mxCell>
        <mxCell id="uhNhJ5nUF2RMJIGcSitU-19" style="edgeStyle=orthogonalEdgeStyle;rounded=0;orthogonalLoop=1;jettySize=auto;html=1;exitX=1;exitY=0.5;exitDx=0;exitDy=0;entryX=0;entryY=0.5;entryDx=0;entryDy=0;strokeColor=default;align=center;verticalAlign=middle;fontFamily=Helvetica;fontSize=11;fontColor=default;labelBackgroundColor=default;endArrow=none;endFill=0;endSize=6;targetPerimeterSpacing=0;" parent="1" source="uhNhJ5nUF2RMJIGcSitU-16" target="uhNhJ5nUF2RMJIGcSitU-18" edge="1">
          <mxGeometry relative="1" as="geometry" />
        </mxCell>
        <mxCell id="uhNhJ5nUF2RMJIGcSitU-23" style="edgeStyle=orthogonalEdgeStyle;rounded=0;orthogonalLoop=1;jettySize=auto;html=1;exitX=0;exitY=0.5;exitDx=0;exitDy=0;strokeColor=default;align=center;verticalAlign=middle;fontFamily=Helvetica;fontSize=11;fontColor=default;labelBackgroundColor=default;endArrow=none;endFill=0;endSize=6;targetPerimeterSpacing=0;" parent="1" source="uhNhJ5nUF2RMJIGcSitU-16" target="uhNhJ5nUF2RMJIGcSitU-20" edge="1">
          <mxGeometry relative="1" as="geometry" />
        </mxCell>
        <mxCell id="uhNhJ5nUF2RMJIGcSitU-16" value="InstMem" style="rounded=0;whiteSpace=wrap;html=1;fontFamily=Helvetica;fontSize=11;fontColor=default;labelBackgroundColor=default;" parent="1" vertex="1">
          <mxGeometry x="230" y="505" width="100" height="160" as="geometry" />
        </mxCell>
        <mxCell id="apA25NxOXQJsWUbe7K5H-82" style="edgeStyle=orthogonalEdgeStyle;rounded=0;orthogonalLoop=1;jettySize=auto;html=1;exitX=0.5;exitY=0;exitDx=0;exitDy=0;strokeColor=#00578a;align=center;verticalAlign=middle;fontFamily=Helvetica;fontSize=11;fontColor=#00578a;labelBackgroundColor=none;endArrow=none;endFill=0;endSize=6;targetPerimeterSpacing=0;fillColor=#8cc6e3;" parent="1" source="uhNhJ5nUF2RMJIGcSitU-18" target="apA25NxOXQJsWUbe7K5H-57" edge="1">
          <mxGeometry relative="1" as="geometry">
            <Array as="points">
              <mxPoint x="390" y="170" />
            </Array>
          </mxGeometry>
        </mxCell>
        <mxCell id="apA25NxOXQJsWUbe7K5H-84" value="IF/IDWrite" style="edgeLabel;html=1;align=center;verticalAlign=middle;resizable=0;points=[];fontFamily=Helvetica;fontSize=9;fontColor=#00578a;labelBackgroundColor=default;strokeColor=default;fillColor=default;gradientColor=none;" parent="apA25NxOXQJsWUbe7K5H-82" vertex="1" connectable="0">
          <mxGeometry x="0.1954" relative="1" as="geometry">
            <mxPoint as="offset" />
          </mxGeometry>
        </mxCell>
        <mxCell id="uhNhJ5nUF2RMJIGcSitU-18" value="IF/ID" style="rounded=0;whiteSpace=wrap;html=1;fontFamily=Helvetica;fontSize=11;fontColor=default;labelBackgroundColor=default;" parent="1" vertex="1">
          <mxGeometry x="370" y="292.5" width="40" height="585" as="geometry" />
        </mxCell>
        <mxCell id="uhNhJ5nUF2RMJIGcSitU-20" value="" style="shape=waypoint;sketch=0;fillStyle=solid;size=6;pointerEvents=1;points=[];fillColor=none;resizable=0;rotatable=0;perimeter=centerPerimeter;snapToPoint=1;fontFamily=Helvetica;fontSize=11;fontColor=default;labelBackgroundColor=default;" parent="1" vertex="1">
          <mxGeometry x="204" y="575" width="20" height="20" as="geometry" />
        </mxCell>
        <mxCell id="uhNhJ5nUF2RMJIGcSitU-37" value="" style="shape=waypoint;sketch=0;fillStyle=solid;size=6;pointerEvents=1;points=[[0.5,0.5,0,0,0]];fillColor=none;resizable=0;rotatable=0;perimeter=centerPerimeter;snapToPoint=1;fontFamily=Helvetica;fontSize=11;fontColor=default;labelBackgroundColor=default;" parent="1" vertex="1">
          <mxGeometry x="204" y="460" width="20" height="20" as="geometry" />
        </mxCell>
        <mxCell id="uhNhJ5nUF2RMJIGcSitU-38" style="edgeStyle=orthogonalEdgeStyle;rounded=0;orthogonalLoop=1;jettySize=auto;html=1;exitX=0.5;exitY=0.5;exitDx=0;exitDy=0;exitPerimeter=0;entryX=0.667;entryY=0.683;entryDx=0;entryDy=0;entryPerimeter=0;strokeColor=default;align=center;verticalAlign=middle;fontFamily=Helvetica;fontSize=11;fontColor=default;labelBackgroundColor=default;endArrow=none;endFill=0;endSize=6;targetPerimeterSpacing=0;" parent="1" source="uhNhJ5nUF2RMJIGcSitU-37" target="uhNhJ5nUF2RMJIGcSitU-20" edge="1">
          <mxGeometry relative="1" as="geometry" />
        </mxCell>
        <mxCell id="uhNhJ5nUF2RMJIGcSitU-39" style="edgeStyle=orthogonalEdgeStyle;rounded=0;orthogonalLoop=1;jettySize=auto;html=1;exitX=0.5;exitY=0.5;exitDx=0;exitDy=0;exitPerimeter=0;entryX=0.001;entryY=0.304;entryDx=0;entryDy=0;entryPerimeter=0;strokeColor=default;align=center;verticalAlign=middle;fontFamily=Helvetica;fontSize=11;fontColor=default;labelBackgroundColor=default;endArrow=none;endFill=0;endSize=6;targetPerimeterSpacing=0;" parent="1" source="uhNhJ5nUF2RMJIGcSitU-37" target="uhNhJ5nUF2RMJIGcSitU-18" edge="1">
          <mxGeometry relative="1" as="geometry">
            <Array as="points">
              <mxPoint x="370" y="470" />
            </Array>
          </mxGeometry>
        </mxCell>
        <mxCell id="uhNhJ5nUF2RMJIGcSitU-55" style="edgeStyle=orthogonalEdgeStyle;rounded=0;orthogonalLoop=1;jettySize=auto;html=1;exitX=0;exitY=0.2;exitDx=0;exitDy=0;exitPerimeter=0;entryX=1;entryY=0.5;entryDx=0;entryDy=0;strokeColor=default;align=center;verticalAlign=middle;fontFamily=Helvetica;fontSize=11;fontColor=default;labelBackgroundColor=default;endArrow=none;endFill=0;endSize=6;targetPerimeterSpacing=0;" parent="1" source="uhNhJ5nUF2RMJIGcSitU-50" target="uhNhJ5nUF2RMJIGcSitU-53" edge="1">
          <mxGeometry relative="1" as="geometry" />
        </mxCell>
        <mxCell id="uhNhJ5nUF2RMJIGcSitU-50" value="+" style="shape=stencil(rZRvD4IgEMY/DW8bQtbrRvU90K5kGTikf9++U6hlhlva5tjuefDHcRwQLupCVkAYLQhfE8YSSnHE+OrjNISyriB3XrtIq2RWgndqZ80RrmrnAkLpAqxyjcs3hK5wTvNxkRutEaKMrjvOm48wqTT+S28eFpa/h2jGUi9UuMQJHNiQtlcJ244mL/9GTj7IP4G5QCVWKS4ymR8P1pz17ms6lWxOoWc87ZO5QKwCCR3a6ZNQKh0ljACkXQKfjlhO3sbrCoxHLEYQki4inZzE/A+VGG5+1HsN16qRLuVibywMtO9elaV/T2I3owdoVf+ItcID);whiteSpace=wrap;html=1;strokeColor=default;align=center;verticalAlign=middle;fontFamily=Helvetica;fontSize=11;fontColor=default;labelBackgroundColor=default;fillColor=default;points=[[0,0.2,0,0,0],[0,0.8,0,0,0],[1,0.5,0,0,0]];" parent="1" vertex="1">
          <mxGeometry x="260" y="409" width="25" height="51" as="geometry" />
        </mxCell>
        <mxCell id="uhNhJ5nUF2RMJIGcSitU-53" value="4" style="text;html=1;align=center;verticalAlign=middle;whiteSpace=wrap;rounded=0;fontFamily=Helvetica;fontSize=11;fontColor=default;labelBackgroundColor=default;" parent="1" vertex="1">
          <mxGeometry x="230" y="414" width="6" height="10" as="geometry" />
        </mxCell>
        <mxCell id="uhNhJ5nUF2RMJIGcSitU-54" style="edgeStyle=orthogonalEdgeStyle;rounded=0;orthogonalLoop=1;jettySize=auto;html=1;exitX=0;exitY=0.8;exitDx=0;exitDy=0;exitPerimeter=0;entryX=0.503;entryY=0.333;entryDx=0;entryDy=0;entryPerimeter=0;strokeColor=default;align=center;verticalAlign=middle;fontFamily=Helvetica;fontSize=11;fontColor=default;labelBackgroundColor=default;endArrow=none;endFill=0;endSize=6;targetPerimeterSpacing=0;" parent="1" source="uhNhJ5nUF2RMJIGcSitU-50" target="uhNhJ5nUF2RMJIGcSitU-37" edge="1">
          <mxGeometry relative="1" as="geometry">
            <Array as="points">
              <mxPoint x="214" y="450" />
            </Array>
          </mxGeometry>
        </mxCell>
        <mxCell id="uhNhJ5nUF2RMJIGcSitU-58" value="ID/EX" style="rounded=0;whiteSpace=wrap;html=1;fontFamily=Helvetica;fontSize=11;fontColor=default;labelBackgroundColor=default;" parent="1" vertex="1">
          <mxGeometry x="870" y="340" width="40" height="537.5" as="geometry" />
        </mxCell>
        <mxCell id="uhNhJ5nUF2RMJIGcSitU-61" value="+" style="shape=stencil(rZRvD4IgEMY/DW8bQtbrRvU90K5kGTikf9++U6hlhlva5tjuefDHcRwQLupCVkAYLQhfE8YSSnHE+OrjNISyriB3XrtIq2RWgndqZ80RrmrnAkLpAqxyjcs3hK5wTvNxkRutEaKMrjvOm48wqTT+S28eFpa/h2jGUi9UuMQJHNiQtlcJ244mL/9GTj7IP4G5QCVWKS4ymR8P1pz17ms6lWxOoWc87ZO5QKwCCR3a6ZNQKh0ljACkXQKfjlhO3sbrCoxHLEYQki4inZzE/A+VGG5+1HsN16qRLuVibywMtO9elaV/T2I3owdoVf+ItcID);whiteSpace=wrap;html=1;strokeColor=default;align=center;verticalAlign=middle;fontFamily=Helvetica;fontSize=11;fontColor=default;labelBackgroundColor=default;fillColor=default;points=[[0,0.2,0,0,0],[0,0.8,0,0,0],[1,0.5,0,0,0]];" parent="1" vertex="1">
          <mxGeometry x="490" y="278" width="25" height="51" as="geometry" />
        </mxCell>
        <mxCell id="uhNhJ5nUF2RMJIGcSitU-62" style="edgeStyle=orthogonalEdgeStyle;rounded=0;orthogonalLoop=1;jettySize=auto;html=1;exitX=0;exitY=0.2;exitDx=0;exitDy=0;exitPerimeter=0;strokeColor=default;align=center;verticalAlign=middle;fontFamily=Helvetica;fontSize=11;fontColor=default;labelBackgroundColor=default;endArrow=none;endFill=0;endSize=6;targetPerimeterSpacing=0;" parent="1" source="uhNhJ5nUF2RMJIGcSitU-61" edge="1">
          <mxGeometry relative="1" as="geometry">
            <mxPoint x="410" y="470" as="targetPoint" />
            <Array as="points">
              <mxPoint x="420" y="288" />
              <mxPoint x="420" y="470" />
            </Array>
          </mxGeometry>
        </mxCell>
        <mxCell id="uhNhJ5nUF2RMJIGcSitU-93" style="edgeStyle=orthogonalEdgeStyle;rounded=0;orthogonalLoop=1;jettySize=auto;html=1;exitX=0.5;exitY=0.5;exitDx=0;exitDy=0;exitPerimeter=0;strokeColor=default;align=center;verticalAlign=middle;fontFamily=Helvetica;fontSize=11;fontColor=default;labelBackgroundColor=default;endArrow=none;endFill=0;endSize=6;targetPerimeterSpacing=0;entryX=0.5;entryY=0.5;entryDx=0;entryDy=0;entryPerimeter=0;" parent="1" source="uhNhJ5nUF2RMJIGcSitU-64" target="uhNhJ5nUF2RMJIGcSitU-88" edge="1">
          <mxGeometry relative="1" as="geometry">
            <mxPoint x="465.1538461538461" y="620" as="targetPoint" />
          </mxGeometry>
        </mxCell>
        <mxCell id="uhNhJ5nUF2RMJIGcSitU-64" value="" style="shape=waypoint;sketch=0;fillStyle=solid;size=6;pointerEvents=1;points=[[0.5,0.5,0,0,0]];fillColor=none;resizable=0;rotatable=0;perimeter=centerPerimeter;snapToPoint=1;fontFamily=Helvetica;fontSize=11;fontColor=default;labelBackgroundColor=default;strokeColor=default;align=center;verticalAlign=middle;" parent="1" vertex="1">
          <mxGeometry x="455" y="575" width="20" height="20" as="geometry" />
        </mxCell>
        <mxCell id="uhNhJ5nUF2RMJIGcSitU-65" style="edgeStyle=orthogonalEdgeStyle;rounded=0;orthogonalLoop=1;jettySize=auto;html=1;exitX=1;exitY=0.5;exitDx=0;exitDy=0;entryX=0.369;entryY=0.498;entryDx=0;entryDy=0;entryPerimeter=0;strokeColor=default;align=center;verticalAlign=middle;fontFamily=Helvetica;fontSize=11;fontColor=default;labelBackgroundColor=default;endArrow=none;endFill=0;endSize=6;targetPerimeterSpacing=0;" parent="1" source="uhNhJ5nUF2RMJIGcSitU-18" target="uhNhJ5nUF2RMJIGcSitU-64" edge="1">
          <mxGeometry relative="1" as="geometry" />
        </mxCell>
        <mxCell id="uhNhJ5nUF2RMJIGcSitU-68" value="Imm&lt;div&gt;Gen&lt;/div&gt;" style="ellipse;whiteSpace=wrap;html=1;aspect=fixed;strokeColor=default;align=center;verticalAlign=middle;fontFamily=Helvetica;fontSize=11;fontColor=default;labelBackgroundColor=default;fillColor=default;" parent="1" vertex="1">
          <mxGeometry x="445" y="369" width="40" height="40" as="geometry" />
        </mxCell>
        <mxCell id="uhNhJ5nUF2RMJIGcSitU-71" value="Shift" style="ellipse;whiteSpace=wrap;html=1;aspect=fixed;strokeColor=default;align=center;verticalAlign=middle;fontFamily=Helvetica;fontSize=11;fontColor=default;labelBackgroundColor=default;fillColor=default;" parent="1" vertex="1">
          <mxGeometry x="450" y="304" width="30" height="30" as="geometry" />
        </mxCell>
        <mxCell id="uhNhJ5nUF2RMJIGcSitU-72" style="edgeStyle=orthogonalEdgeStyle;rounded=0;orthogonalLoop=1;jettySize=auto;html=1;exitX=1;exitY=0.5;exitDx=0;exitDy=0;entryX=0;entryY=0.8;entryDx=0;entryDy=0;entryPerimeter=0;strokeColor=default;align=center;verticalAlign=middle;fontFamily=Helvetica;fontSize=11;fontColor=default;labelBackgroundColor=default;endArrow=none;endFill=0;endSize=6;targetPerimeterSpacing=0;" parent="1" source="uhNhJ5nUF2RMJIGcSitU-71" target="uhNhJ5nUF2RMJIGcSitU-61" edge="1">
          <mxGeometry relative="1" as="geometry" />
        </mxCell>
        <mxCell id="uhNhJ5nUF2RMJIGcSitU-75" value="PC" style="text;html=1;align=center;verticalAlign=middle;whiteSpace=wrap;rounded=0;fontFamily=Helvetica;fontSize=7;fontColor=default;labelBackgroundColor=default;" parent="1" vertex="1">
          <mxGeometry x="350" y="460" width="20" height="10" as="geometry" />
        </mxCell>
        <mxCell id="uhNhJ5nUF2RMJIGcSitU-84" value="" style="group" parent="1" vertex="1" connectable="0">
          <mxGeometry x="570" y="480" width="120" height="190" as="geometry" />
        </mxCell>
        <mxCell id="uhNhJ5nUF2RMJIGcSitU-76" value="RegFile" style="rounded=0;whiteSpace=wrap;html=1;strokeColor=default;align=center;verticalAlign=middle;fontFamily=Helvetica;fontSize=11;fontColor=default;labelBackgroundColor=default;fillColor=default;" parent="uhNhJ5nUF2RMJIGcSitU-84" vertex="1">
          <mxGeometry width="120" height="190" as="geometry" />
        </mxCell>
        <mxCell id="uhNhJ5nUF2RMJIGcSitU-77" value="AddrA" style="text;html=1;align=center;verticalAlign=bottom;whiteSpace=wrap;rounded=0;fontFamily=Helvetica;fontSize=5;fontColor=default;labelBackgroundColor=default;" parent="uhNhJ5nUF2RMJIGcSitU-84" vertex="1">
          <mxGeometry y="30" width="20" height="10" as="geometry" />
        </mxCell>
        <mxCell id="uhNhJ5nUF2RMJIGcSitU-78" value="AddrB" style="text;html=1;align=center;verticalAlign=bottom;whiteSpace=wrap;rounded=0;fontFamily=Helvetica;fontSize=5;fontColor=default;labelBackgroundColor=default;" parent="uhNhJ5nUF2RMJIGcSitU-84" vertex="1">
          <mxGeometry y="50" width="20" height="10" as="geometry" />
        </mxCell>
        <mxCell id="uhNhJ5nUF2RMJIGcSitU-79" value="WData" style="text;html=1;align=center;verticalAlign=bottom;whiteSpace=wrap;rounded=0;fontFamily=Helvetica;fontSize=5;fontColor=default;labelBackgroundColor=default;" parent="uhNhJ5nUF2RMJIGcSitU-84" vertex="1">
          <mxGeometry y="135" width="20" height="10" as="geometry" />
        </mxCell>
        <mxCell id="uhNhJ5nUF2RMJIGcSitU-80" value="WAddr" style="text;html=1;align=center;verticalAlign=bottom;whiteSpace=wrap;rounded=0;fontFamily=Helvetica;fontSize=5;fontColor=default;labelBackgroundColor=default;" parent="uhNhJ5nUF2RMJIGcSitU-84" vertex="1">
          <mxGeometry y="150" width="20" height="10" as="geometry" />
        </mxCell>
        <mxCell id="uhNhJ5nUF2RMJIGcSitU-81" value="WEn" style="text;html=1;align=center;verticalAlign=bottom;whiteSpace=wrap;rounded=0;fontFamily=Helvetica;fontSize=5;fontColor=default;labelBackgroundColor=default;" parent="uhNhJ5nUF2RMJIGcSitU-84" vertex="1">
          <mxGeometry x="50" width="20" height="10" as="geometry" />
        </mxCell>
        <mxCell id="uhNhJ5nUF2RMJIGcSitU-82" value="ReadA" style="text;html=1;align=center;verticalAlign=bottom;whiteSpace=wrap;rounded=0;fontFamily=Helvetica;fontSize=5;fontColor=default;labelBackgroundColor=default;" parent="uhNhJ5nUF2RMJIGcSitU-84" vertex="1">
          <mxGeometry x="100" y="35" width="20" height="10" as="geometry" />
        </mxCell>
        <mxCell id="uhNhJ5nUF2RMJIGcSitU-83" value="ReadB" style="text;html=1;align=center;verticalAlign=bottom;whiteSpace=wrap;rounded=0;fontFamily=Helvetica;fontSize=5;fontColor=default;labelBackgroundColor=default;" parent="uhNhJ5nUF2RMJIGcSitU-84" vertex="1">
          <mxGeometry x="100" y="135" width="20" height="10" as="geometry" />
        </mxCell>
        <mxCell id="uhNhJ5nUF2RMJIGcSitU-99" style="edgeStyle=orthogonalEdgeStyle;rounded=0;orthogonalLoop=1;jettySize=auto;html=1;exitDx=0;exitDy=0;exitPerimeter=0;entryX=0.5;entryY=1;entryDx=0;entryDy=0;strokeColor=default;align=center;verticalAlign=middle;fontFamily=Helvetica;fontSize=11;fontColor=default;labelBackgroundColor=default;endArrow=none;endFill=0;endSize=6;targetPerimeterSpacing=0;" parent="1" source="uhNhJ5nUF2RMJIGcSitU-142" target="uhNhJ5nUF2RMJIGcSitU-68" edge="1">
          <mxGeometry relative="1" as="geometry" />
        </mxCell>
        <mxCell id="uhNhJ5nUF2RMJIGcSitU-86" value="" style="shape=waypoint;sketch=0;fillStyle=solid;size=6;pointerEvents=1;points=[[0.5,0.5,0,0,0]];fillColor=none;resizable=0;rotatable=0;perimeter=centerPerimeter;snapToPoint=1;fontFamily=Helvetica;fontSize=11;fontColor=default;labelBackgroundColor=default;strokeColor=default;align=center;verticalAlign=middle;" parent="1" vertex="1">
          <mxGeometry x="455" y="505" width="20" height="20" as="geometry" />
        </mxCell>
        <mxCell id="uhNhJ5nUF2RMJIGcSitU-98" style="edgeStyle=orthogonalEdgeStyle;rounded=0;orthogonalLoop=1;jettySize=auto;html=1;exitX=0.5;exitY=0.5;exitDx=0;exitDy=0;exitPerimeter=0;strokeColor=default;align=center;verticalAlign=middle;fontFamily=Helvetica;fontSize=11;fontColor=default;labelBackgroundColor=default;endArrow=none;endFill=0;endSize=6;targetPerimeterSpacing=0;" parent="1" source="uhNhJ5nUF2RMJIGcSitU-87" target="uhNhJ5nUF2RMJIGcSitU-86" edge="1">
          <mxGeometry relative="1" as="geometry" />
        </mxCell>
        <mxCell id="uhNhJ5nUF2RMJIGcSitU-87" value="" style="shape=waypoint;sketch=0;fillStyle=solid;size=6;pointerEvents=1;points=[[0.5,0.5,0,0,0]];fillColor=none;resizable=0;rotatable=0;perimeter=centerPerimeter;snapToPoint=1;fontFamily=Helvetica;fontSize=11;fontColor=default;labelBackgroundColor=default;strokeColor=default;align=center;verticalAlign=middle;" parent="1" vertex="1">
          <mxGeometry x="455" y="525" width="20" height="20" as="geometry" />
        </mxCell>
        <mxCell id="uhNhJ5nUF2RMJIGcSitU-88" value="" style="shape=waypoint;sketch=0;fillStyle=solid;size=6;pointerEvents=1;points=[[0.5,0.5,0,0,0]];fillColor=none;resizable=0;rotatable=0;perimeter=centerPerimeter;snapToPoint=1;fontFamily=Helvetica;fontSize=11;fontColor=default;labelBackgroundColor=default;strokeColor=default;align=center;verticalAlign=middle;" parent="1" vertex="1">
          <mxGeometry x="455" y="710" width="20" height="20" as="geometry" />
        </mxCell>
        <mxCell id="uhNhJ5nUF2RMJIGcSitU-89" style="edgeStyle=orthogonalEdgeStyle;rounded=0;orthogonalLoop=1;jettySize=auto;html=1;exitX=0.5;exitY=0.5;exitDx=0;exitDy=0;exitPerimeter=0;entryX=0.085;entryY=0.535;entryDx=0;entryDy=0;entryPerimeter=0;strokeColor=default;align=center;verticalAlign=middle;fontFamily=Helvetica;fontSize=11;fontColor=default;labelBackgroundColor=default;endArrow=none;endFill=0;endSize=6;targetPerimeterSpacing=0;" parent="1" source="uhNhJ5nUF2RMJIGcSitU-87" target="uhNhJ5nUF2RMJIGcSitU-87" edge="1">
          <mxGeometry relative="1" as="geometry" />
        </mxCell>
        <mxCell id="uhNhJ5nUF2RMJIGcSitU-90" value="" style="shape=waypoint;sketch=0;fillStyle=solid;size=6;pointerEvents=1;points=[[0.5,0.5,0,0,0]];fillColor=none;resizable=0;rotatable=0;perimeter=centerPerimeter;snapToPoint=1;fontFamily=Helvetica;fontSize=11;fontColor=default;labelBackgroundColor=default;strokeColor=default;align=center;verticalAlign=middle;" parent="1" vertex="1">
          <mxGeometry x="455" y="730" width="20" height="20" as="geometry" />
        </mxCell>
        <mxCell id="uhNhJ5nUF2RMJIGcSitU-94" style="edgeStyle=orthogonalEdgeStyle;rounded=0;orthogonalLoop=1;jettySize=auto;html=1;exitX=0.5;exitY=0.5;exitDx=0;exitDy=0;exitPerimeter=0;entryX=0.5;entryY=0.5;entryDx=0;entryDy=0;entryPerimeter=0;strokeColor=default;align=center;verticalAlign=middle;fontFamily=Helvetica;fontSize=11;fontColor=default;labelBackgroundColor=default;endArrow=none;endFill=0;endSize=6;targetPerimeterSpacing=0;" parent="1" source="uhNhJ5nUF2RMJIGcSitU-88" target="uhNhJ5nUF2RMJIGcSitU-90" edge="1">
          <mxGeometry relative="1" as="geometry" />
        </mxCell>
        <mxCell id="uhNhJ5nUF2RMJIGcSitU-95" style="edgeStyle=orthogonalEdgeStyle;rounded=0;orthogonalLoop=1;jettySize=auto;html=1;exitX=0;exitY=0.5;exitDx=0;exitDy=0;entryX=1.162;entryY=0.919;entryDx=0;entryDy=0;entryPerimeter=0;strokeColor=default;align=center;verticalAlign=middle;fontFamily=Helvetica;fontSize=11;fontColor=default;labelBackgroundColor=default;endArrow=none;endFill=0;endSize=6;targetPerimeterSpacing=0;jumpStyle=none;" parent="1" source="uhNhJ5nUF2RMJIGcSitU-78" target="uhNhJ5nUF2RMJIGcSitU-87" edge="1">
          <mxGeometry relative="1" as="geometry" />
        </mxCell>
        <mxCell id="uhNhJ5nUF2RMJIGcSitU-96" style="edgeStyle=orthogonalEdgeStyle;rounded=0;orthogonalLoop=1;jettySize=auto;html=1;exitX=0;exitY=0.5;exitDx=0;exitDy=0;entryX=0.123;entryY=0.785;entryDx=0;entryDy=0;entryPerimeter=0;strokeColor=default;align=center;verticalAlign=middle;fontFamily=Helvetica;fontSize=11;fontColor=default;labelBackgroundColor=default;endArrow=none;endFill=0;endSize=6;targetPerimeterSpacing=0;" parent="1" source="uhNhJ5nUF2RMJIGcSitU-77" target="uhNhJ5nUF2RMJIGcSitU-86" edge="1">
          <mxGeometry relative="1" as="geometry" />
        </mxCell>
        <mxCell id="uhNhJ5nUF2RMJIGcSitU-97" style="edgeStyle=orthogonalEdgeStyle;rounded=0;orthogonalLoop=1;jettySize=auto;html=1;exitX=0.5;exitY=0.5;exitDx=0;exitDy=0;exitPerimeter=0;entryX=0.488;entryY=0.727;entryDx=0;entryDy=0;entryPerimeter=0;strokeColor=default;align=center;verticalAlign=middle;fontFamily=Helvetica;fontSize=11;fontColor=default;labelBackgroundColor=default;endArrow=none;endFill=0;endSize=6;targetPerimeterSpacing=0;" parent="1" source="uhNhJ5nUF2RMJIGcSitU-64" target="uhNhJ5nUF2RMJIGcSitU-87" edge="1">
          <mxGeometry relative="1" as="geometry" />
        </mxCell>
        <mxCell id="uhNhJ5nUF2RMJIGcSitU-102" style="edgeStyle=orthogonalEdgeStyle;rounded=0;orthogonalLoop=1;jettySize=auto;html=1;exitX=0.5;exitY=0.5;exitDx=0;exitDy=0;exitPerimeter=0;entryX=0.5;entryY=1;entryDx=0;entryDy=0;strokeColor=default;align=center;verticalAlign=middle;fontFamily=Helvetica;fontSize=11;fontColor=default;labelBackgroundColor=default;endArrow=none;endFill=0;endSize=6;targetPerimeterSpacing=0;" parent="1" source="uhNhJ5nUF2RMJIGcSitU-100" target="uhNhJ5nUF2RMJIGcSitU-71" edge="1">
          <mxGeometry relative="1" as="geometry" />
        </mxCell>
        <mxCell id="uhNhJ5nUF2RMJIGcSitU-100" value="" style="shape=waypoint;sketch=0;fillStyle=solid;size=6;pointerEvents=1;points=[[0.5,0.5,0,0,0]];fillColor=none;resizable=0;rotatable=0;perimeter=centerPerimeter;snapToPoint=1;fontFamily=Helvetica;fontSize=11;fontColor=default;labelBackgroundColor=default;strokeColor=default;align=center;verticalAlign=middle;" parent="1" vertex="1">
          <mxGeometry x="455" y="350" width="20" height="20" as="geometry" />
        </mxCell>
        <mxCell id="uhNhJ5nUF2RMJIGcSitU-101" style="edgeStyle=orthogonalEdgeStyle;rounded=0;orthogonalLoop=1;jettySize=auto;html=1;exitX=0.5;exitY=0;exitDx=0;exitDy=0;entryX=0.5;entryY=0.5;entryDx=0;entryDy=0;entryPerimeter=0;strokeColor=default;align=center;verticalAlign=middle;fontFamily=Helvetica;fontSize=11;fontColor=default;labelBackgroundColor=default;endArrow=none;endFill=0;endSize=6;targetPerimeterSpacing=0;" parent="1" source="uhNhJ5nUF2RMJIGcSitU-68" target="uhNhJ5nUF2RMJIGcSitU-100" edge="1">
          <mxGeometry relative="1" as="geometry" />
        </mxCell>
        <mxCell id="uhNhJ5nUF2RMJIGcSitU-103" value="Instruction" style="text;html=1;align=center;verticalAlign=middle;whiteSpace=wrap;rounded=0;fontFamily=Helvetica;fontSize=7;fontColor=default;labelBackgroundColor=default;" parent="1" vertex="1">
          <mxGeometry x="340" y="575" width="20" height="10" as="geometry" />
        </mxCell>
        <mxCell id="uhNhJ5nUF2RMJIGcSitU-104" value="Instruction" style="text;html=1;align=center;verticalAlign=middle;whiteSpace=wrap;rounded=0;fontFamily=Helvetica;fontSize=7;fontColor=default;labelBackgroundColor=default;" parent="1" vertex="1">
          <mxGeometry x="425" y="575" width="20" height="10" as="geometry" />
        </mxCell>
        <mxCell id="uhNhJ5nUF2RMJIGcSitU-105" value="rs1" style="text;html=1;align=center;verticalAlign=middle;whiteSpace=wrap;rounded=0;fontFamily=Helvetica;fontSize=7;fontColor=default;labelBackgroundColor=default;" parent="1" vertex="1">
          <mxGeometry x="535" y="505" width="20" height="10" as="geometry" />
        </mxCell>
        <mxCell id="uhNhJ5nUF2RMJIGcSitU-106" value="rs2" style="text;html=1;align=center;verticalAlign=middle;whiteSpace=wrap;rounded=0;fontFamily=Helvetica;fontSize=7;fontColor=default;labelBackgroundColor=default;" parent="1" vertex="1">
          <mxGeometry x="535" y="525" width="20" height="10" as="geometry" />
        </mxCell>
        <mxCell id="uhNhJ5nUF2RMJIGcSitU-116" style="edgeStyle=orthogonalEdgeStyle;rounded=0;orthogonalLoop=1;jettySize=auto;html=1;exitDx=0;exitDy=0;entryX=-0.002;entryY=0.335;entryDx=0;entryDy=0;entryPerimeter=0;strokeColor=default;align=center;verticalAlign=middle;fontFamily=Helvetica;fontSize=11;fontColor=default;labelBackgroundColor=default;endArrow=none;endFill=0;endSize=6;targetPerimeterSpacing=0;" parent="1" source="uhNhJ5nUF2RMJIGcSitU-123" target="uhNhJ5nUF2RMJIGcSitU-58" edge="1">
          <mxGeometry relative="1" as="geometry" />
        </mxCell>
        <mxCell id="uhNhJ5nUF2RMJIGcSitU-117" style="edgeStyle=orthogonalEdgeStyle;rounded=0;orthogonalLoop=1;jettySize=auto;html=1;exitDx=0;exitDy=0;entryX=-0.004;entryY=0.521;entryDx=0;entryDy=0;entryPerimeter=0;strokeColor=default;align=center;verticalAlign=middle;fontFamily=Helvetica;fontSize=11;fontColor=default;labelBackgroundColor=default;endArrow=none;endFill=0;endSize=6;targetPerimeterSpacing=0;" parent="1" source="uhNhJ5nUF2RMJIGcSitU-126" target="uhNhJ5nUF2RMJIGcSitU-58" edge="1">
          <mxGeometry relative="1" as="geometry" />
        </mxCell>
        <mxCell id="uhNhJ5nUF2RMJIGcSitU-165" style="edgeStyle=orthogonalEdgeStyle;rounded=0;orthogonalLoop=1;jettySize=auto;html=1;exitX=1;exitY=0.5;exitDx=0;exitDy=0;strokeColor=#00578a;align=center;verticalAlign=middle;fontFamily=Helvetica;fontSize=11;fontColor=#00578a;labelBackgroundColor=none;endArrow=none;endFill=0;endSize=6;targetPerimeterSpacing=0;fillColor=#8cc6e3;" parent="1" source="uhNhJ5nUF2RMJIGcSitU-118" target="uhNhJ5nUF2RMJIGcSitU-140" edge="1">
          <mxGeometry relative="1" as="geometry">
            <Array as="points">
              <mxPoint x="820" y="570" />
              <mxPoint x="820" y="460" />
              <mxPoint x="645" y="460" />
            </Array>
          </mxGeometry>
        </mxCell>
        <mxCell id="uhNhJ5nUF2RMJIGcSitU-118" value="=" style="ellipse;whiteSpace=wrap;html=1;aspect=fixed;strokeColor=default;align=center;verticalAlign=middle;fontFamily=Helvetica;fontSize=11;fontColor=default;labelBackgroundColor=default;fillColor=default;" parent="1" vertex="1">
          <mxGeometry x="740" y="540" width="60" height="60" as="geometry" />
        </mxCell>
        <mxCell id="uhNhJ5nUF2RMJIGcSitU-124" value="" style="edgeStyle=orthogonalEdgeStyle;rounded=0;orthogonalLoop=1;jettySize=auto;html=1;exitX=1;exitY=0.5;exitDx=0;exitDy=0;entryDx=0;entryDy=0;entryPerimeter=0;strokeColor=default;align=center;verticalAlign=middle;fontFamily=Helvetica;fontSize=11;fontColor=default;labelBackgroundColor=default;endArrow=none;endFill=0;endSize=6;targetPerimeterSpacing=0;" parent="1" source="uhNhJ5nUF2RMJIGcSitU-82" target="uhNhJ5nUF2RMJIGcSitU-123" edge="1">
          <mxGeometry relative="1" as="geometry">
            <mxPoint x="690" y="520" as="sourcePoint" />
            <mxPoint x="870" y="520" as="targetPoint" />
          </mxGeometry>
        </mxCell>
        <mxCell id="uhNhJ5nUF2RMJIGcSitU-128" style="edgeStyle=orthogonalEdgeStyle;rounded=0;orthogonalLoop=1;jettySize=auto;html=1;exitX=0.5;exitY=0.5;exitDx=0;exitDy=0;exitPerimeter=0;entryX=0.5;entryY=0;entryDx=0;entryDy=0;strokeColor=default;align=center;verticalAlign=middle;fontFamily=Helvetica;fontSize=11;fontColor=default;labelBackgroundColor=default;endArrow=none;endFill=0;endSize=6;targetPerimeterSpacing=0;" parent="1" source="uhNhJ5nUF2RMJIGcSitU-123" target="uhNhJ5nUF2RMJIGcSitU-118" edge="1">
          <mxGeometry relative="1" as="geometry" />
        </mxCell>
        <mxCell id="uhNhJ5nUF2RMJIGcSitU-123" value="" style="shape=waypoint;sketch=0;fillStyle=solid;size=6;pointerEvents=1;points=[[0.5,0.5,0,0,0]];fillColor=none;resizable=0;rotatable=0;perimeter=centerPerimeter;snapToPoint=1;fontFamily=Helvetica;fontSize=11;fontColor=default;labelBackgroundColor=default;strokeColor=default;align=center;verticalAlign=middle;" parent="1" vertex="1">
          <mxGeometry x="760" y="510" width="20" height="20" as="geometry" />
        </mxCell>
        <mxCell id="uhNhJ5nUF2RMJIGcSitU-125" value="" style="edgeStyle=orthogonalEdgeStyle;rounded=0;orthogonalLoop=1;jettySize=auto;html=1;exitX=1;exitY=0.5;exitDx=0;exitDy=0;entryDx=0;entryDy=0;entryPerimeter=0;strokeColor=default;align=center;verticalAlign=middle;fontFamily=Helvetica;fontSize=11;fontColor=default;labelBackgroundColor=default;endArrow=none;endFill=0;endSize=6;targetPerimeterSpacing=0;" parent="1" source="uhNhJ5nUF2RMJIGcSitU-83" target="uhNhJ5nUF2RMJIGcSitU-126" edge="1">
          <mxGeometry relative="1" as="geometry">
            <mxPoint x="690" y="620" as="sourcePoint" />
            <mxPoint x="870" y="620" as="targetPoint" />
          </mxGeometry>
        </mxCell>
        <mxCell id="uhNhJ5nUF2RMJIGcSitU-127" style="edgeStyle=orthogonalEdgeStyle;rounded=0;orthogonalLoop=1;jettySize=auto;html=1;exitX=0.5;exitY=0.5;exitDx=0;exitDy=0;exitPerimeter=0;entryX=0.5;entryY=1;entryDx=0;entryDy=0;strokeColor=default;align=center;verticalAlign=middle;fontFamily=Helvetica;fontSize=11;fontColor=default;labelBackgroundColor=default;endArrow=none;endFill=0;endSize=6;targetPerimeterSpacing=0;" parent="1" source="uhNhJ5nUF2RMJIGcSitU-126" target="uhNhJ5nUF2RMJIGcSitU-118" edge="1">
          <mxGeometry relative="1" as="geometry" />
        </mxCell>
        <mxCell id="uhNhJ5nUF2RMJIGcSitU-126" value="" style="shape=waypoint;sketch=0;fillStyle=solid;size=6;pointerEvents=1;points=[[0.5,0.5,0,0,0]];fillColor=none;resizable=0;rotatable=0;perimeter=centerPerimeter;snapToPoint=1;fontFamily=Helvetica;fontSize=11;fontColor=default;labelBackgroundColor=default;strokeColor=default;align=center;verticalAlign=middle;" parent="1" vertex="1">
          <mxGeometry x="760" y="610" width="20" height="20" as="geometry" />
        </mxCell>
        <mxCell id="uhNhJ5nUF2RMJIGcSitU-129" value="data1" style="text;html=1;align=center;verticalAlign=middle;whiteSpace=wrap;rounded=0;fontFamily=Helvetica;fontSize=7;fontColor=default;labelBackgroundColor=default;" parent="1" vertex="1">
          <mxGeometry x="850" y="510" width="20" height="10" as="geometry" />
        </mxCell>
        <mxCell id="uhNhJ5nUF2RMJIGcSitU-130" value="data2" style="text;html=1;align=center;verticalAlign=middle;whiteSpace=wrap;rounded=0;fontFamily=Helvetica;fontSize=7;fontColor=default;labelBackgroundColor=default;" parent="1" vertex="1">
          <mxGeometry x="850" y="610" width="20" height="10" as="geometry" />
        </mxCell>
        <mxCell id="uhNhJ5nUF2RMJIGcSitU-131" style="edgeStyle=orthogonalEdgeStyle;rounded=0;orthogonalLoop=1;jettySize=auto;html=1;exitX=0.5;exitY=0.5;exitDx=0;exitDy=0;exitPerimeter=0;strokeColor=default;align=center;verticalAlign=middle;fontFamily=Helvetica;fontSize=11;fontColor=default;labelBackgroundColor=default;endArrow=none;endFill=0;endSize=6;targetPerimeterSpacing=0;" parent="1" source="uhNhJ5nUF2RMJIGcSitU-88" edge="1">
          <mxGeometry relative="1" as="geometry">
            <mxPoint x="870" y="720" as="targetPoint" />
          </mxGeometry>
        </mxCell>
        <mxCell id="uhNhJ5nUF2RMJIGcSitU-132" style="edgeStyle=orthogonalEdgeStyle;rounded=0;orthogonalLoop=1;jettySize=auto;html=1;exitX=0.5;exitY=0.5;exitDx=0;exitDy=0;exitPerimeter=0;entryX=-0.011;entryY=0.744;entryDx=0;entryDy=0;entryPerimeter=0;strokeColor=default;align=center;verticalAlign=middle;fontFamily=Helvetica;fontSize=11;fontColor=default;labelBackgroundColor=default;endArrow=none;endFill=0;endSize=6;targetPerimeterSpacing=0;" parent="1" source="uhNhJ5nUF2RMJIGcSitU-90" target="uhNhJ5nUF2RMJIGcSitU-58" edge="1">
          <mxGeometry relative="1" as="geometry" />
        </mxCell>
        <mxCell id="uhNhJ5nUF2RMJIGcSitU-134" value="rd" style="text;html=1;align=center;verticalAlign=middle;whiteSpace=wrap;rounded=0;fontFamily=Helvetica;fontSize=7;fontColor=default;labelBackgroundColor=default;" parent="1" vertex="1">
          <mxGeometry x="850" y="710" width="20" height="10" as="geometry" />
        </mxCell>
        <mxCell id="uhNhJ5nUF2RMJIGcSitU-135" style="edgeStyle=orthogonalEdgeStyle;rounded=0;orthogonalLoop=1;jettySize=auto;html=1;exitX=0.5;exitY=0.5;exitDx=0;exitDy=0;exitPerimeter=0;strokeColor=default;align=center;verticalAlign=middle;fontFamily=Helvetica;fontSize=11;fontColor=default;labelBackgroundColor=default;endArrow=none;endFill=0;endSize=6;targetPerimeterSpacing=0;" parent="1" source="uhNhJ5nUF2RMJIGcSitU-90" target="uhNhJ5nUF2RMJIGcSitU-58" edge="1">
          <mxGeometry relative="1" as="geometry">
            <Array as="points">
              <mxPoint x="465" y="760" />
            </Array>
          </mxGeometry>
        </mxCell>
        <mxCell id="uhNhJ5nUF2RMJIGcSitU-136" value="rs1" style="text;html=1;align=center;verticalAlign=middle;whiteSpace=wrap;rounded=0;fontFamily=Helvetica;fontSize=7;fontColor=default;labelBackgroundColor=default;" parent="1" vertex="1">
          <mxGeometry x="850" y="730" width="20" height="10" as="geometry" />
        </mxCell>
        <mxCell id="uhNhJ5nUF2RMJIGcSitU-137" value="rs2" style="text;html=1;align=center;verticalAlign=middle;whiteSpace=wrap;rounded=0;fontFamily=Helvetica;fontSize=7;fontColor=default;labelBackgroundColor=default;" parent="1" vertex="1">
          <mxGeometry x="850" y="750" width="20" height="10" as="geometry" />
        </mxCell>
        <mxCell id="uhNhJ5nUF2RMJIGcSitU-138" style="edgeStyle=orthogonalEdgeStyle;rounded=0;orthogonalLoop=1;jettySize=auto;html=1;exitX=0.5;exitY=0.5;exitDx=0;exitDy=0;exitPerimeter=0;strokeColor=default;align=center;verticalAlign=middle;fontFamily=Helvetica;fontSize=11;fontColor=default;labelBackgroundColor=default;endArrow=none;endFill=0;endSize=6;targetPerimeterSpacing=0;entryX=-0.004;entryY=0.67;entryDx=0;entryDy=0;entryPerimeter=0;jumpStyle=arc;" parent="1" source="uhNhJ5nUF2RMJIGcSitU-100" target="uhNhJ5nUF2RMJIGcSitU-58" edge="1">
          <mxGeometry relative="1" as="geometry">
            <mxPoint x="860" y="690" as="targetPoint" />
            <Array as="points">
              <mxPoint x="510" y="360" />
              <mxPoint x="510" y="700" />
            </Array>
          </mxGeometry>
        </mxCell>
        <mxCell id="uhNhJ5nUF2RMJIGcSitU-139" value="Imm" style="text;html=1;align=center;verticalAlign=middle;whiteSpace=wrap;rounded=0;fontFamily=Helvetica;fontSize=7;fontColor=default;labelBackgroundColor=default;" parent="1" vertex="1">
          <mxGeometry x="850" y="690" width="20" height="10" as="geometry" />
        </mxCell>
        <mxCell id="uhNhJ5nUF2RMJIGcSitU-140" value="Control" style="ellipse;whiteSpace=wrap;html=1;strokeColor=#00578a;align=center;verticalAlign=middle;fontFamily=Helvetica;fontSize=11;labelBackgroundColor=none;fillColor=#8cc6e3;fontColor=#00578a;" parent="1" vertex="1">
          <mxGeometry x="620" y="258" width="50" height="91" as="geometry" />
        </mxCell>
        <mxCell id="uhNhJ5nUF2RMJIGcSitU-141" value="" style="edgeStyle=orthogonalEdgeStyle;rounded=0;orthogonalLoop=1;jettySize=auto;html=1;exitX=0.5;exitY=0.5;exitDx=0;exitDy=0;exitPerimeter=0;entryDx=0;entryDy=0;strokeColor=default;align=center;verticalAlign=middle;fontFamily=Helvetica;fontSize=11;fontColor=default;labelBackgroundColor=default;endArrow=none;endFill=0;endSize=6;targetPerimeterSpacing=0;" parent="1" source="uhNhJ5nUF2RMJIGcSitU-86" target="uhNhJ5nUF2RMJIGcSitU-142" edge="1">
          <mxGeometry relative="1" as="geometry">
            <mxPoint x="465" y="515" as="sourcePoint" />
            <mxPoint x="465" y="409" as="targetPoint" />
          </mxGeometry>
        </mxCell>
        <mxCell id="uhNhJ5nUF2RMJIGcSitU-142" value="" style="shape=waypoint;sketch=0;fillStyle=solid;size=6;pointerEvents=1;points=[[0.5,0.5,0,0,0]];fillColor=none;resizable=0;rotatable=0;perimeter=centerPerimeter;snapToPoint=1;fontFamily=Helvetica;fontSize=11;fontColor=default;labelBackgroundColor=default;strokeColor=default;align=center;verticalAlign=middle;" parent="1" vertex="1">
          <mxGeometry x="455" y="430" width="20" height="20" as="geometry" />
        </mxCell>
        <mxCell id="uhNhJ5nUF2RMJIGcSitU-145" value="Ex" style="rounded=0;whiteSpace=wrap;html=1;strokeColor=#00578a;align=center;verticalAlign=middle;fontFamily=Helvetica;fontSize=11;fontColor=#00578a;labelBackgroundColor=none;fillColor=#8cc6e3;" parent="1" vertex="1">
          <mxGeometry x="870" y="310" width="40" height="30" as="geometry" />
        </mxCell>
        <mxCell id="uhNhJ5nUF2RMJIGcSitU-186" style="edgeStyle=orthogonalEdgeStyle;rounded=0;orthogonalLoop=1;jettySize=auto;html=1;entryX=0;entryY=0.5;entryDx=0;entryDy=0;strokeColor=#00578a;align=center;verticalAlign=middle;fontFamily=Helvetica;fontSize=11;fontColor=#00578a;labelBackgroundColor=none;endArrow=none;endFill=0;endSize=6;targetPerimeterSpacing=0;fillColor=#8cc6e3;" parent="1" source="uhNhJ5nUF2RMJIGcSitU-146" target="uhNhJ5nUF2RMJIGcSitU-155" edge="1">
          <mxGeometry relative="1" as="geometry">
            <Array as="points">
              <mxPoint x="1240" y="295" />
              <mxPoint x="1240" y="325" />
            </Array>
            <mxPoint x="960" y="295" as="sourcePoint" />
          </mxGeometry>
        </mxCell>
        <mxCell id="uhNhJ5nUF2RMJIGcSitU-146" value="MEM" style="rounded=0;whiteSpace=wrap;html=1;strokeColor=#00578a;align=center;verticalAlign=middle;fontFamily=Helvetica;fontSize=11;fontColor=#00578a;labelBackgroundColor=none;fillColor=#8cc6e3;" parent="1" vertex="1">
          <mxGeometry x="870" y="280" width="40" height="30" as="geometry" />
        </mxCell>
        <mxCell id="uhNhJ5nUF2RMJIGcSitU-187" style="edgeStyle=orthogonalEdgeStyle;rounded=0;orthogonalLoop=1;jettySize=auto;html=1;exitX=1;exitY=0.5;exitDx=0;exitDy=0;entryX=0;entryY=0.5;entryDx=0;entryDy=0;strokeColor=#00578a;align=center;verticalAlign=middle;fontFamily=Helvetica;fontSize=11;fontColor=#00578a;labelBackgroundColor=none;endArrow=none;endFill=0;endSize=6;targetPerimeterSpacing=0;fillColor=#8cc6e3;" parent="1" source="uhNhJ5nUF2RMJIGcSitU-147" target="uhNhJ5nUF2RMJIGcSitU-156" edge="1">
          <mxGeometry relative="1" as="geometry">
            <Array as="points">
              <mxPoint x="1270" y="265" />
              <mxPoint x="1270" y="295" />
            </Array>
          </mxGeometry>
        </mxCell>
        <mxCell id="uhNhJ5nUF2RMJIGcSitU-147" value="WB" style="rounded=0;whiteSpace=wrap;html=1;strokeColor=#00578a;align=center;verticalAlign=middle;fontFamily=Helvetica;fontSize=11;fontColor=#00578a;labelBackgroundColor=none;fillColor=#8cc6e3;" parent="1" vertex="1">
          <mxGeometry x="870" y="250" width="40" height="30" as="geometry" />
        </mxCell>
        <mxCell id="uhNhJ5nUF2RMJIGcSitU-149" style="edgeStyle=orthogonalEdgeStyle;rounded=0;orthogonalLoop=1;jettySize=auto;html=1;exitDx=0;exitDy=0;exitPerimeter=0;entryX=0;entryY=0.5;entryDx=0;entryDy=0;strokeColor=#00578a;align=center;verticalAlign=middle;fontFamily=Helvetica;fontSize=11;fontColor=#00578a;labelBackgroundColor=none;endArrow=none;endFill=0;endSize=6;targetPerimeterSpacing=0;fillColor=#8cc6e3;" parent="1" source="uhNhJ5nUF2RMJIGcSitU-151" target="uhNhJ5nUF2RMJIGcSitU-146" edge="1">
          <mxGeometry relative="1" as="geometry" />
        </mxCell>
        <mxCell id="apA25NxOXQJsWUbe7K5H-58" style="edgeStyle=orthogonalEdgeStyle;rounded=0;orthogonalLoop=1;jettySize=auto;html=1;exitX=0.3;exitY=1;exitDx=10;exitDy=0;exitPerimeter=0;strokeColor=#00578a;align=center;verticalAlign=middle;fontFamily=Helvetica;fontSize=11;fontColor=#00578a;labelBackgroundColor=none;endArrow=none;endFill=0;endSize=6;targetPerimeterSpacing=0;fillColor=#8cc6e3;" parent="1" source="uhNhJ5nUF2RMJIGcSitU-148" target="apA25NxOXQJsWUbe7K5H-57" edge="1">
          <mxGeometry relative="1" as="geometry">
            <Array as="points">
              <mxPoint x="785" y="170" />
            </Array>
          </mxGeometry>
        </mxCell>
        <mxCell id="apA25NxOXQJsWUbe7K5H-59" value="Flush" style="edgeLabel;html=1;align=center;verticalAlign=middle;resizable=0;points=[];fontFamily=Helvetica;fontSize=9;fontColor=#00578a;labelBackgroundColor=default;strokeColor=default;fillColor=default;gradientColor=none;" parent="apA25NxOXQJsWUbe7K5H-58" vertex="1" connectable="0">
          <mxGeometry x="-0.7226" y="1" relative="1" as="geometry">
            <mxPoint as="offset" />
          </mxGeometry>
        </mxCell>
        <mxCell id="uhNhJ5nUF2RMJIGcSitU-148" value="CMux" style="shadow=0;dashed=0;align=center;html=1;strokeWidth=1;shape=mxgraph.electrical.abstract.mux2;operation=demux;whiteSpace=wrap;strokeColor=#00578a;verticalAlign=middle;fontFamily=Helvetica;fontSize=11;fontColor=#00578a;labelBackgroundColor=none;fillColor=#8cc6e3;direction=west;" parent="1" vertex="1">
          <mxGeometry x="760" y="240" width="50" height="100" as="geometry" />
        </mxCell>
        <mxCell id="uhNhJ5nUF2RMJIGcSitU-150" value="" style="edgeStyle=orthogonalEdgeStyle;rounded=0;orthogonalLoop=1;jettySize=auto;html=1;exitX=0;exitY=0.45;exitDx=0;exitDy=0;exitPerimeter=0;entryDx=0;entryDy=0;strokeColor=#00578a;align=center;verticalAlign=middle;fontFamily=Helvetica;fontSize=11;fontColor=#00578a;labelBackgroundColor=none;endArrow=none;endFill=0;endSize=6;targetPerimeterSpacing=0;fillColor=#8cc6e3;" parent="1" source="uhNhJ5nUF2RMJIGcSitU-148" target="uhNhJ5nUF2RMJIGcSitU-151" edge="1">
          <mxGeometry relative="1" as="geometry">
            <mxPoint x="810" y="295" as="sourcePoint" />
            <mxPoint x="870" y="295" as="targetPoint" />
          </mxGeometry>
        </mxCell>
        <mxCell id="uhNhJ5nUF2RMJIGcSitU-152" style="edgeStyle=orthogonalEdgeStyle;rounded=0;orthogonalLoop=1;jettySize=auto;html=1;exitX=0.5;exitY=0.5;exitDx=0;exitDy=0;exitPerimeter=0;entryX=0;entryY=0.5;entryDx=0;entryDy=0;strokeColor=#00578a;align=center;verticalAlign=middle;fontFamily=Helvetica;fontSize=11;fontColor=#00578a;labelBackgroundColor=none;endArrow=none;endFill=0;endSize=6;targetPerimeterSpacing=0;fillColor=#8cc6e3;" parent="1" source="uhNhJ5nUF2RMJIGcSitU-151" target="uhNhJ5nUF2RMJIGcSitU-147" edge="1">
          <mxGeometry relative="1" as="geometry">
            <Array as="points">
              <mxPoint x="840" y="265" />
            </Array>
          </mxGeometry>
        </mxCell>
        <mxCell id="uhNhJ5nUF2RMJIGcSitU-153" style="edgeStyle=orthogonalEdgeStyle;rounded=0;orthogonalLoop=1;jettySize=auto;html=1;exitX=0.5;exitY=0.5;exitDx=0;exitDy=0;exitPerimeter=0;entryX=0;entryY=0.5;entryDx=0;entryDy=0;strokeColor=#00578a;align=center;verticalAlign=middle;fontFamily=Helvetica;fontSize=11;fontColor=#00578a;labelBackgroundColor=none;endArrow=none;endFill=0;endSize=6;targetPerimeterSpacing=0;fillColor=#8cc6e3;" parent="1" source="uhNhJ5nUF2RMJIGcSitU-151" target="uhNhJ5nUF2RMJIGcSitU-145" edge="1">
          <mxGeometry relative="1" as="geometry">
            <Array as="points">
              <mxPoint x="840" y="325" />
            </Array>
          </mxGeometry>
        </mxCell>
        <mxCell id="uhNhJ5nUF2RMJIGcSitU-151" value="" style="shape=waypoint;sketch=0;fillStyle=solid;size=6;pointerEvents=1;points=[[0.5,0.5,0,0,0]];fillColor=#8cc6e3;resizable=0;rotatable=0;perimeter=centerPerimeter;snapToPoint=1;fontFamily=Helvetica;fontSize=11;fontColor=#00578a;labelBackgroundColor=none;strokeColor=#00578a;align=center;verticalAlign=middle;" parent="1" vertex="1">
          <mxGeometry x="830" y="285" width="20" height="20" as="geometry" />
        </mxCell>
        <mxCell id="uhNhJ5nUF2RMJIGcSitU-206" style="edgeStyle=orthogonalEdgeStyle;rounded=0;orthogonalLoop=1;jettySize=auto;html=1;exitDx=0;exitDy=0;entryX=0.5;entryY=0;entryDx=0;entryDy=0;strokeColor=#00578a;align=center;verticalAlign=middle;fontFamily=Helvetica;fontSize=11;fontColor=#00578a;labelBackgroundColor=none;endArrow=none;endFill=0;endSize=6;targetPerimeterSpacing=0;fillColor=#8cc6e3;" parent="1" source="apA25NxOXQJsWUbe7K5H-18" target="uhNhJ5nUF2RMJIGcSitU-193" edge="1">
          <mxGeometry relative="1" as="geometry" />
        </mxCell>
        <mxCell id="uhNhJ5nUF2RMJIGcSitU-207" value="MemWrite" style="edgeLabel;html=1;align=center;verticalAlign=middle;resizable=0;points=[];strokeColor=default;fontFamily=Helvetica;fontSize=9;fontColor=#00578a;labelBackgroundColor=default;fillColor=default;gradientColor=none;" parent="uhNhJ5nUF2RMJIGcSitU-206" vertex="1" connectable="0">
          <mxGeometry x="0.5049" y="1" relative="1" as="geometry">
            <mxPoint x="-1" y="6" as="offset" />
          </mxGeometry>
        </mxCell>
        <mxCell id="uhNhJ5nUF2RMJIGcSitU-155" value="MEM" style="rounded=0;whiteSpace=wrap;html=1;strokeColor=#00578a;align=center;verticalAlign=middle;fontFamily=Helvetica;fontSize=11;fontColor=#00578a;labelBackgroundColor=none;fillColor=#8cc6e3;" parent="1" vertex="1">
          <mxGeometry x="1350" y="310" width="40" height="30" as="geometry" />
        </mxCell>
        <mxCell id="uhNhJ5nUF2RMJIGcSitU-188" style="edgeStyle=orthogonalEdgeStyle;rounded=0;orthogonalLoop=1;jettySize=auto;html=1;exitDx=0;exitDy=0;entryX=0;entryY=0.5;entryDx=0;entryDy=0;strokeColor=#00578a;align=center;verticalAlign=middle;fontFamily=Helvetica;fontSize=11;fontColor=#00578a;labelBackgroundColor=none;endArrow=none;endFill=0;endSize=6;targetPerimeterSpacing=0;fillColor=#8cc6e3;" parent="1" source="apA25NxOXQJsWUbe7K5H-13" target="uhNhJ5nUF2RMJIGcSitU-160" edge="1">
          <mxGeometry relative="1" as="geometry">
            <Array as="points">
              <mxPoint x="1640" y="295" />
              <mxPoint x="1640" y="325" />
            </Array>
          </mxGeometry>
        </mxCell>
        <mxCell id="uhNhJ5nUF2RMJIGcSitU-156" value="WB" style="rounded=0;whiteSpace=wrap;html=1;strokeColor=#00578a;align=center;verticalAlign=middle;fontFamily=Helvetica;fontSize=11;fontColor=#00578a;labelBackgroundColor=none;fillColor=#8cc6e3;" parent="1" vertex="1">
          <mxGeometry x="1350" y="280" width="40" height="30" as="geometry" />
        </mxCell>
        <mxCell id="uhNhJ5nUF2RMJIGcSitU-211" style="edgeStyle=orthogonalEdgeStyle;rounded=0;orthogonalLoop=1;jettySize=auto;html=1;exitDx=0;exitDy=0;strokeColor=default;align=center;verticalAlign=middle;fontFamily=Helvetica;fontSize=11;fontColor=default;labelBackgroundColor=default;endArrow=none;endFill=0;endSize=6;targetPerimeterSpacing=0;exitPerimeter=0;entryX=-0.004;entryY=0.717;entryDx=0;entryDy=0;entryPerimeter=0;" parent="1" source="apA25NxOXQJsWUbe7K5H-5" target="uhNhJ5nUF2RMJIGcSitU-161" edge="1">
          <mxGeometry relative="1" as="geometry">
            <mxPoint x="1680" y="720" as="targetPoint" />
          </mxGeometry>
        </mxCell>
        <mxCell id="uhNhJ5nUF2RMJIGcSitU-157" value="ID/EX" style="rounded=0;whiteSpace=wrap;html=1;fontFamily=Helvetica;fontSize=11;fontColor=default;labelBackgroundColor=default;" parent="1" vertex="1">
          <mxGeometry x="1350" y="340" width="40" height="537.5" as="geometry" />
        </mxCell>
        <mxCell id="uhNhJ5nUF2RMJIGcSitU-160" value="WB" style="rounded=0;whiteSpace=wrap;html=1;strokeColor=#00578a;align=center;verticalAlign=middle;fontFamily=Helvetica;fontSize=11;fontColor=#00578a;labelBackgroundColor=none;fillColor=#8cc6e3;" parent="1" vertex="1">
          <mxGeometry x="1690" y="310" width="40" height="30" as="geometry" />
        </mxCell>
        <mxCell id="uhNhJ5nUF2RMJIGcSitU-214" style="edgeStyle=orthogonalEdgeStyle;rounded=0;orthogonalLoop=1;jettySize=auto;html=1;exitDx=0;exitDy=0;strokeColor=#B20000;align=center;verticalAlign=middle;fontFamily=Helvetica;fontSize=11;fontColor=default;labelBackgroundColor=default;endArrow=none;endFill=0;endSize=6;targetPerimeterSpacing=0;exitPerimeter=0;entryX=0;entryY=0.5;entryDx=0;entryDy=0;jumpStyle=none;fillColor=#e51400;" parent="1" source="apA25NxOXQJsWUbe7K5H-8" target="uhNhJ5nUF2RMJIGcSitU-80" edge="1">
          <mxGeometry relative="1" as="geometry">
            <mxPoint x="563.4042553191489" y="630" as="targetPoint" />
            <Array as="points">
              <mxPoint x="1140" y="1010" />
              <mxPoint x="550" y="1010" />
              <mxPoint x="550" y="635" />
            </Array>
          </mxGeometry>
        </mxCell>
        <mxCell id="uhNhJ5nUF2RMJIGcSitU-161" value="ID/EX" style="rounded=0;whiteSpace=wrap;html=1;fontFamily=Helvetica;fontSize=11;fontColor=default;labelBackgroundColor=default;" parent="1" vertex="1">
          <mxGeometry x="1690" y="340" width="40" height="530" as="geometry" />
        </mxCell>
        <mxCell id="uhNhJ5nUF2RMJIGcSitU-162" style="edgeStyle=orthogonalEdgeStyle;rounded=0;orthogonalLoop=1;jettySize=auto;html=1;exitX=1;exitY=0.5;exitDx=0;exitDy=0;entryX=1;entryY=0.21;entryDx=0;entryDy=3;entryPerimeter=0;strokeColor=#00578a;align=center;verticalAlign=middle;fontFamily=Helvetica;fontSize=11;fontColor=#00578a;labelBackgroundColor=none;endArrow=none;endFill=0;endSize=6;targetPerimeterSpacing=0;fillColor=#8cc6e3;" parent="1" source="uhNhJ5nUF2RMJIGcSitU-140" target="uhNhJ5nUF2RMJIGcSitU-148" edge="1">
          <mxGeometry relative="1" as="geometry" />
        </mxCell>
        <mxCell id="uhNhJ5nUF2RMJIGcSitU-163" value="0" style="text;html=1;align=center;verticalAlign=middle;whiteSpace=wrap;rounded=0;fontFamily=Helvetica;fontSize=11;fontColor=#00578a;labelBackgroundColor=none;" parent="1" vertex="1">
          <mxGeometry x="730" y="269" width="10" height="10" as="geometry" />
        </mxCell>
        <mxCell id="uhNhJ5nUF2RMJIGcSitU-164" style="edgeStyle=orthogonalEdgeStyle;rounded=0;orthogonalLoop=1;jettySize=auto;html=1;exitX=1;exitY=0.5;exitDx=0;exitDy=0;entryX=1;entryY=0.63;entryDx=0;entryDy=3;entryPerimeter=0;strokeColor=#00578a;align=center;verticalAlign=middle;fontFamily=Helvetica;fontSize=11;fontColor=#00578a;labelBackgroundColor=none;endArrow=none;endFill=0;endSize=6;targetPerimeterSpacing=0;fillColor=#8cc6e3;" parent="1" source="uhNhJ5nUF2RMJIGcSitU-163" target="uhNhJ5nUF2RMJIGcSitU-148" edge="1">
          <mxGeometry relative="1" as="geometry" />
        </mxCell>
        <mxCell id="uhNhJ5nUF2RMJIGcSitU-167" value="Equal" style="text;html=1;align=center;verticalAlign=middle;whiteSpace=wrap;rounded=0;fontFamily=Helvetica;fontSize=7;fontColor=#00578a;labelBackgroundColor=none;" parent="1" vertex="1">
          <mxGeometry x="800" y="570" width="20" height="10" as="geometry" />
        </mxCell>
        <mxCell id="uhNhJ5nUF2RMJIGcSitU-168" style="edgeStyle=orthogonalEdgeStyle;rounded=0;orthogonalLoop=1;jettySize=auto;html=1;exitDx=0;exitDy=0;entryX=0.25;entryY=1;entryDx=10;entryDy=0;entryPerimeter=0;strokeColor=#00578a;align=center;verticalAlign=middle;fontFamily=Helvetica;fontSize=11;fontColor=#00578a;labelBackgroundColor=none;endArrow=none;endFill=0;endSize=6;targetPerimeterSpacing=0;fillColor=#8cc6e3;jumpStyle=arc;" parent="1" source="apA25NxOXQJsWUbe7K5H-74" target="uhNhJ5nUF2RMJIGcSitU-1" edge="1">
          <mxGeometry relative="1" as="geometry">
            <Array as="points">
              <mxPoint x="120" y="230" />
            </Array>
          </mxGeometry>
        </mxCell>
        <mxCell id="uhNhJ5nUF2RMJIGcSitU-171" value="ALU" style="shape=stencil(rZRhD4IgEIZ/DV8bSlZfG9X/ILuSZeCQrP59p2DLDLe0zbHd++LDcRwQxstMFEBimhG2IXEcUYojxjcXJz4UZQGpdVoljBT7HJxTWqPPcJMH6xFSZWCkrV22JXSNc+qP8VQrhRCpVdlx3nyECanwX3p3ML/8w0ezVihwiQtYMD5tp5J4N5q8+hs5+iAnv4AZRyVUKcb3Ij2fjL6qw9d0ClGfQs9o7YuuIFSBiA7ttCXkUgUJIwBJl8CmI5aTt/G6AuMRixGEqItIJicx/0Mlhpsf9V7DNWqgSxk/agMD7XuUee7ek9DN6AEa1T1ijfAE);whiteSpace=wrap;html=1;points=[[0,0.2,0,0,0],[0,0.8,0,0,0],[0.5,0.15,0,0,0],[1,0.38,0,0,0],[1,0.5,0,0,0]];strokeColor=default;align=center;verticalAlign=middle;fontFamily=Helvetica;fontSize=11;fontColor=default;labelBackgroundColor=default;fillColor=default;" parent="1" vertex="1">
          <mxGeometry x="1185" y="439.5" width="90" height="185" as="geometry" />
        </mxCell>
        <mxCell id="uhNhJ5nUF2RMJIGcSitU-172" style="edgeStyle=orthogonalEdgeStyle;rounded=0;orthogonalLoop=1;jettySize=auto;html=1;exitDx=0;exitDy=0;entryX=0.5;entryY=0.15;entryDx=0;entryDy=0;entryPerimeter=0;strokeColor=#00578a;align=center;verticalAlign=middle;fontFamily=Helvetica;fontSize=11;fontColor=#00578a;labelBackgroundColor=none;endArrow=none;endFill=0;endSize=6;targetPerimeterSpacing=0;fillColor=#8cc6e3;" parent="1" source="apA25NxOXQJsWUbe7K5H-27" target="uhNhJ5nUF2RMJIGcSitU-171" edge="1">
          <mxGeometry relative="1" as="geometry" />
        </mxCell>
        <mxCell id="uhNhJ5nUF2RMJIGcSitU-190" value="ALUControl" style="edgeLabel;html=1;align=center;verticalAlign=middle;resizable=0;points=[];strokeColor=default;fontFamily=Helvetica;fontSize=9;fontColor=#00578a;labelBackgroundColor=default;fillColor=default;gradientColor=none;" parent="uhNhJ5nUF2RMJIGcSitU-172" vertex="1" connectable="0">
          <mxGeometry x="0.5887" y="-2" relative="1" as="geometry">
            <mxPoint x="2" y="23" as="offset" />
          </mxGeometry>
        </mxCell>
        <mxCell id="uhNhJ5nUF2RMJIGcSitU-174" style="edgeStyle=orthogonalEdgeStyle;rounded=0;orthogonalLoop=1;jettySize=auto;html=1;exitX=1;exitY=0.5;exitDx=0;exitDy=-5;exitPerimeter=0;entryX=0;entryY=0.2;entryDx=0;entryDy=0;entryPerimeter=0;strokeColor=default;align=center;verticalAlign=middle;fontFamily=Helvetica;fontSize=11;fontColor=default;labelBackgroundColor=default;endArrow=none;endFill=0;endSize=6;targetPerimeterSpacing=0;" parent="1" source="uhNhJ5nUF2RMJIGcSitU-181" target="uhNhJ5nUF2RMJIGcSitU-171" edge="1">
          <mxGeometry relative="1" as="geometry">
            <mxPoint x="1050" y="462.5" as="sourcePoint" />
            <Array as="points">
              <mxPoint x="1090" y="458" />
              <mxPoint x="1090" y="477" />
            </Array>
          </mxGeometry>
        </mxCell>
        <mxCell id="uhNhJ5nUF2RMJIGcSitU-177" style="edgeStyle=orthogonalEdgeStyle;rounded=0;orthogonalLoop=1;jettySize=auto;html=1;exitX=0;exitY=0.10595238095238095;exitDx=0;exitDy=3;exitPerimeter=0;entryX=1;entryY=0.335;entryDx=0;entryDy=0;entryPerimeter=0;strokeColor=default;align=center;verticalAlign=middle;fontFamily=Helvetica;fontSize=11;fontColor=default;labelBackgroundColor=default;endArrow=none;endFill=0;endSize=6;targetPerimeterSpacing=0;" parent="1" source="uhNhJ5nUF2RMJIGcSitU-181" target="uhNhJ5nUF2RMJIGcSitU-58" edge="1">
          <mxGeometry relative="1" as="geometry">
            <mxPoint x="1000" y="499.6249999999999" as="sourcePoint" />
            <Array as="points">
              <mxPoint x="920" y="424" />
              <mxPoint x="920" y="520" />
            </Array>
          </mxGeometry>
        </mxCell>
        <mxCell id="uhNhJ5nUF2RMJIGcSitU-181" value="FwA" style="shadow=0;dashed=0;align=center;html=1;strokeWidth=1;shape=mxgraph.electrical.abstract.mux2;whiteSpace=wrap;strokeColor=default;verticalAlign=middle;fontFamily=Helvetica;fontSize=11;fontColor=default;labelBackgroundColor=default;fillColor=default;selectorPins=2;" parent="1" vertex="1">
          <mxGeometry x="1000" y="410" width="50" height="105" as="geometry" />
        </mxCell>
        <mxCell id="apA25NxOXQJsWUbe7K5H-56" style="edgeStyle=orthogonalEdgeStyle;rounded=0;orthogonalLoop=1;jettySize=auto;html=1;exitX=0;exitY=0.31785714285714284;exitDx=0;exitDy=3;exitPerimeter=0;strokeColor=#B20000;align=center;verticalAlign=middle;fontFamily=Helvetica;fontSize=11;fontColor=default;labelBackgroundColor=default;endArrow=none;endFill=0;jumpStyle=arc;endSize=6;targetPerimeterSpacing=0;fillColor=#e51400;" parent="1" source="uhNhJ5nUF2RMJIGcSitU-182" target="apA25NxOXQJsWUbe7K5H-55" edge="1">
          <mxGeometry relative="1" as="geometry" />
        </mxCell>
        <mxCell id="uhNhJ5nUF2RMJIGcSitU-182" value="FwB" style="shadow=0;dashed=0;align=center;html=1;strokeWidth=1;shape=mxgraph.electrical.abstract.mux2;whiteSpace=wrap;strokeColor=default;verticalAlign=middle;fontFamily=Helvetica;fontSize=11;fontColor=default;labelBackgroundColor=default;fillColor=default;selectorPins=2;" parent="1" vertex="1">
          <mxGeometry x="1000" y="550" width="50" height="105" as="geometry" />
        </mxCell>
        <mxCell id="uhNhJ5nUF2RMJIGcSitU-184" style="edgeStyle=orthogonalEdgeStyle;rounded=0;orthogonalLoop=1;jettySize=auto;html=1;exitX=1;exitY=0.5;exitDx=0;exitDy=0;exitPerimeter=0;entryX=-0.003;entryY=0.357;entryDx=0;entryDy=0;entryPerimeter=0;strokeColor=default;align=center;verticalAlign=middle;fontFamily=Helvetica;fontSize=11;fontColor=default;labelBackgroundColor=default;endArrow=none;endFill=0;endSize=6;targetPerimeterSpacing=0;" parent="1" source="uhNhJ5nUF2RMJIGcSitU-171" target="uhNhJ5nUF2RMJIGcSitU-157" edge="1">
          <mxGeometry relative="1" as="geometry" />
        </mxCell>
        <mxCell id="uhNhJ5nUF2RMJIGcSitU-185" value="AluRes" style="text;html=1;align=center;verticalAlign=middle;whiteSpace=wrap;rounded=0;fontFamily=Helvetica;fontSize=7;fontColor=default;labelBackgroundColor=default;" parent="1" vertex="1">
          <mxGeometry x="1322" y="521" width="30" height="10" as="geometry" />
        </mxCell>
        <mxCell id="uhNhJ5nUF2RMJIGcSitU-192" value="rd" style="text;html=1;align=center;verticalAlign=middle;whiteSpace=wrap;rounded=0;fontFamily=Helvetica;fontSize=7;fontColor=default;labelBackgroundColor=default;" parent="1" vertex="1">
          <mxGeometry x="1330" y="710" width="20" height="10" as="geometry" />
        </mxCell>
        <mxCell id="uhNhJ5nUF2RMJIGcSitU-195" style="edgeStyle=orthogonalEdgeStyle;rounded=0;orthogonalLoop=1;jettySize=auto;html=1;exitDx=0;exitDy=0;strokeColor=default;align=center;verticalAlign=middle;fontFamily=Helvetica;fontSize=11;fontColor=default;labelBackgroundColor=default;endArrow=none;endFill=0;endSize=6;targetPerimeterSpacing=0;orthogonal=0;snapToPoint=1;linejoin=bevel;arcSize=20;entryX=-0.009;entryY=0.415;entryDx=0;entryDy=0;entryPerimeter=0;" parent="1" source="apA25NxOXQJsWUbe7K5H-52" target="uhNhJ5nUF2RMJIGcSitU-161" edge="1">
          <mxGeometry relative="1" as="geometry">
            <mxPoint x="1680" y="560" as="targetPoint" />
          </mxGeometry>
        </mxCell>
        <mxCell id="uhNhJ5nUF2RMJIGcSitU-193" value="DataMem" style="rounded=0;whiteSpace=wrap;html=1;fontFamily=Helvetica;fontSize=11;fontColor=default;labelBackgroundColor=default;" parent="1" vertex="1">
          <mxGeometry x="1490" y="480" width="100" height="160" as="geometry" />
        </mxCell>
        <mxCell id="uhNhJ5nUF2RMJIGcSitU-196" style="edgeStyle=orthogonalEdgeStyle;rounded=0;orthogonalLoop=1;jettySize=auto;html=1;exitDx=0;exitDy=0;entryX=0.993;entryY=0.356;entryDx=0;entryDy=0;entryPerimeter=0;strokeColor=default;align=center;verticalAlign=middle;fontFamily=Helvetica;fontSize=11;fontColor=default;labelBackgroundColor=default;endArrow=none;endFill=0;endSize=6;targetPerimeterSpacing=0;" parent="1" source="apA25NxOXQJsWUbe7K5H-45" target="uhNhJ5nUF2RMJIGcSitU-157" edge="1">
          <mxGeometry relative="1" as="geometry">
            <Array as="points">
              <mxPoint x="1390" y="531" />
            </Array>
          </mxGeometry>
        </mxCell>
        <mxCell id="uhNhJ5nUF2RMJIGcSitU-197" value="" style="edgeStyle=orthogonalEdgeStyle;rounded=0;orthogonalLoop=1;jettySize=auto;html=1;exitX=0;exitY=0.25;exitDx=0;exitDy=0;entryDx=0;entryDy=0;entryPerimeter=0;strokeColor=default;align=center;verticalAlign=middle;fontFamily=Helvetica;fontSize=11;fontColor=default;labelBackgroundColor=default;endArrow=none;endFill=0;endSize=6;targetPerimeterSpacing=0;" parent="1" source="uhNhJ5nUF2RMJIGcSitU-193" target="uhNhJ5nUF2RMJIGcSitU-198" edge="1">
          <mxGeometry relative="1" as="geometry">
            <mxPoint x="1490" y="520" as="sourcePoint" />
            <mxPoint x="1390" y="531" as="targetPoint" />
            <Array as="points">
              <mxPoint x="1440" y="520" />
            </Array>
          </mxGeometry>
        </mxCell>
        <mxCell id="uhNhJ5nUF2RMJIGcSitU-198" value="" style="shape=waypoint;sketch=0;fillStyle=solid;size=6;pointerEvents=1;points=[[0.5,0.5,0,0,0]];fillColor=none;resizable=0;rotatable=0;perimeter=centerPerimeter;snapToPoint=1;fontFamily=Helvetica;fontSize=11;fontColor=default;labelBackgroundColor=default;strokeColor=default;align=center;verticalAlign=middle;" parent="1" vertex="1">
          <mxGeometry x="1430" y="521.5" width="20" height="20" as="geometry" />
        </mxCell>
        <mxCell id="uhNhJ5nUF2RMJIGcSitU-200" value="MemData" style="text;html=1;align=center;verticalAlign=middle;whiteSpace=wrap;rounded=0;fontFamily=Helvetica;fontSize=7;fontColor=default;labelBackgroundColor=default;" parent="1" vertex="1">
          <mxGeometry x="1660" y="550" width="30" height="10" as="geometry" />
        </mxCell>
        <mxCell id="uhNhJ5nUF2RMJIGcSitU-202" value="AluRes" style="text;html=1;align=center;verticalAlign=middle;whiteSpace=wrap;rounded=0;fontFamily=Helvetica;fontSize=7;fontColor=default;labelBackgroundColor=default;" parent="1" vertex="1">
          <mxGeometry x="1660" y="670" width="30" height="10" as="geometry" />
        </mxCell>
        <mxCell id="uhNhJ5nUF2RMJIGcSitU-213" style="edgeStyle=orthogonalEdgeStyle;rounded=0;orthogonalLoop=1;jettySize=auto;html=1;exitDx=0;exitDy=0;exitPerimeter=0;entryX=0;entryY=0.5;entryDx=0;entryDy=0;strokeColor=#B20000;align=center;verticalAlign=middle;fontFamily=Helvetica;fontSize=11;fontColor=default;labelBackgroundColor=default;endArrow=none;endFill=0;endSize=6;targetPerimeterSpacing=0;jumpStyle=none;fillColor=#e51400;" parent="1" source="apA25NxOXQJsWUbe7K5H-36" target="uhNhJ5nUF2RMJIGcSitU-79" edge="1">
          <mxGeometry relative="1" as="geometry">
            <Array as="points">
              <mxPoint x="530" y="1030" />
              <mxPoint x="530" y="620" />
            </Array>
          </mxGeometry>
        </mxCell>
        <mxCell id="uhNhJ5nUF2RMJIGcSitU-203" value="WBMux" style="shadow=0;dashed=0;align=center;html=1;strokeWidth=1;shape=mxgraph.electrical.abstract.mux2;operation=demux;whiteSpace=wrap;strokeColor=default;verticalAlign=middle;fontFamily=Helvetica;fontSize=11;fontColor=default;labelBackgroundColor=default;fillColor=default;direction=west;" parent="1" vertex="1">
          <mxGeometry x="1830" y="550" width="50" height="108.75" as="geometry" />
        </mxCell>
        <mxCell id="uhNhJ5nUF2RMJIGcSitU-204" style="edgeStyle=orthogonalEdgeStyle;rounded=0;orthogonalLoop=1;jettySize=auto;html=1;exitX=1;exitY=0.6396551724137931;exitDx=0;exitDy=3;exitPerimeter=0;entryX=1.009;entryY=0.414;entryDx=0;entryDy=0;entryPerimeter=0;strokeColor=default;align=center;verticalAlign=middle;fontFamily=Helvetica;fontSize=11;fontColor=default;labelBackgroundColor=default;endArrow=none;endFill=0;endSize=6;targetPerimeterSpacing=0;" parent="1" source="uhNhJ5nUF2RMJIGcSitU-203" target="uhNhJ5nUF2RMJIGcSitU-161" edge="1">
          <mxGeometry relative="1" as="geometry" />
        </mxCell>
        <mxCell id="uhNhJ5nUF2RMJIGcSitU-205" style="edgeStyle=orthogonalEdgeStyle;rounded=0;orthogonalLoop=1;jettySize=auto;html=1;exitX=1;exitY=0.2132183908045977;exitDx=0;exitDy=3;exitPerimeter=0;entryX=0.992;entryY=0.641;entryDx=0;entryDy=0;entryPerimeter=0;strokeColor=default;align=center;verticalAlign=middle;fontFamily=Helvetica;fontSize=11;fontColor=default;labelBackgroundColor=default;endArrow=none;endFill=0;endSize=6;targetPerimeterSpacing=0;" parent="1" source="uhNhJ5nUF2RMJIGcSitU-203" target="uhNhJ5nUF2RMJIGcSitU-161" edge="1">
          <mxGeometry relative="1" as="geometry" />
        </mxCell>
        <mxCell id="uhNhJ5nUF2RMJIGcSitU-208" style="edgeStyle=orthogonalEdgeStyle;rounded=0;orthogonalLoop=1;jettySize=auto;html=1;exitDx=0;exitDy=0;entryX=0.3;entryY=1;entryDx=10;entryDy=0;entryPerimeter=0;strokeColor=#00578a;align=center;verticalAlign=middle;fontFamily=Helvetica;fontSize=11;fontColor=#00578a;labelBackgroundColor=none;endArrow=none;endFill=0;endSize=6;targetPerimeterSpacing=0;resizable=0;fillColor=#8cc6e3;gradientColor=none;" parent="1" source="apA25NxOXQJsWUbe7K5H-91" target="uhNhJ5nUF2RMJIGcSitU-203" edge="1">
          <mxGeometry relative="1" as="geometry" />
        </mxCell>
        <mxCell id="uhNhJ5nUF2RMJIGcSitU-210" value="MemToReg" style="edgeLabel;html=1;align=center;verticalAlign=middle;resizable=0;points=[];strokeColor=default;fontFamily=Helvetica;fontSize=9;fontColor=#00578a;labelBackgroundColor=default;fillColor=default;gradientColor=none;" parent="uhNhJ5nUF2RMJIGcSitU-208" vertex="1" connectable="0">
          <mxGeometry x="0.6171" relative="1" as="geometry">
            <mxPoint as="offset" />
          </mxGeometry>
        </mxCell>
        <mxCell id="uhNhJ5nUF2RMJIGcSitU-212" value="rd" style="text;html=1;align=center;verticalAlign=middle;whiteSpace=wrap;rounded=0;fontFamily=Helvetica;fontSize=7;fontColor=default;labelBackgroundColor=default;" parent="1" vertex="1">
          <mxGeometry x="1670" y="710" width="20" height="10" as="geometry" />
        </mxCell>
        <mxCell id="uhNhJ5nUF2RMJIGcSitU-143" style="edgeStyle=orthogonalEdgeStyle;rounded=0;orthogonalLoop=1;jettySize=auto;html=1;exitX=0.5;exitY=0.5;exitDx=0;exitDy=0;exitPerimeter=0;entryX=0;entryY=0.5;entryDx=0;entryDy=0;strokeColor=#00578a;align=center;verticalAlign=middle;fontFamily=Helvetica;fontSize=11;fontColor=#00578a;labelBackgroundColor=default;endArrow=none;endFill=0;endSize=6;targetPerimeterSpacing=0;fillColor=#e51400;" parent="1" source="uhNhJ5nUF2RMJIGcSitU-142" target="uhNhJ5nUF2RMJIGcSitU-140" edge="1">
          <mxGeometry relative="1" as="geometry">
            <Array as="points">
              <mxPoint x="560" y="440" />
              <mxPoint x="560" y="304" />
              <mxPoint x="620" y="304" />
            </Array>
          </mxGeometry>
        </mxCell>
        <mxCell id="uhNhJ5nUF2RMJIGcSitU-144" value="Instruction" style="edgeLabel;html=1;align=center;verticalAlign=middle;resizable=0;points=[];strokeColor=default;fontFamily=Helvetica;fontSize=9;fontColor=#00578a;labelBackgroundColor=default;fillColor=default;" parent="uhNhJ5nUF2RMJIGcSitU-143" vertex="1" connectable="0">
          <mxGeometry x="0.4605" relative="1" as="geometry">
            <mxPoint as="offset" />
          </mxGeometry>
        </mxCell>
        <mxCell id="uhNhJ5nUF2RMJIGcSitU-215" value="Fordwarding Unit" style="rounded=1;whiteSpace=wrap;html=1;strokeColor=#00578a;align=center;verticalAlign=middle;fontFamily=Helvetica;fontSize=11;fontColor=#00578a;labelBackgroundColor=none;fillColor=#8cc6e3;arcSize=27;" parent="1" vertex="1">
          <mxGeometry x="1080" y="930" width="120" height="60" as="geometry" />
        </mxCell>
        <mxCell id="uhNhJ5nUF2RMJIGcSitU-217" value="" style="shape=waypoint;sketch=0;fillStyle=solid;size=6;pointerEvents=1;points=[[0.5,0.5,0,0,0]];fillColor=none;resizable=0;rotatable=0;perimeter=centerPerimeter;snapToPoint=1;fontFamily=Helvetica;fontSize=11;fontColor=default;labelBackgroundColor=default;strokeColor=default;align=center;verticalAlign=middle;" parent="1" vertex="1">
          <mxGeometry x="950" y="554" width="20" height="20" as="geometry" />
        </mxCell>
        <mxCell id="uhNhJ5nUF2RMJIGcSitU-220" value="Address" style="text;html=1;align=center;verticalAlign=middle;whiteSpace=wrap;rounded=0;fontFamily=Helvetica;fontSize=7;fontColor=default;labelBackgroundColor=default;" parent="1" vertex="1">
          <mxGeometry x="1490" y="515" width="30" height="10" as="geometry" />
        </mxCell>
        <mxCell id="uhNhJ5nUF2RMJIGcSitU-221" value="WriteData" style="text;html=1;align=center;verticalAlign=middle;whiteSpace=wrap;rounded=0;fontFamily=Helvetica;fontSize=7;fontColor=default;labelBackgroundColor=default;" parent="1" vertex="1">
          <mxGeometry x="1487" y="595" width="40" height="10" as="geometry" />
        </mxCell>
        <mxCell id="apA25NxOXQJsWUbe7K5H-4" value="" style="edgeStyle=orthogonalEdgeStyle;rounded=0;orthogonalLoop=1;jettySize=auto;html=1;exitX=0.999;exitY=0.707;exitDx=0;exitDy=0;strokeColor=default;align=center;verticalAlign=middle;fontFamily=Helvetica;fontSize=11;fontColor=default;labelBackgroundColor=default;endArrow=none;endFill=0;endSize=6;targetPerimeterSpacing=0;exitPerimeter=0;entryDx=0;entryDy=0;entryPerimeter=0;" parent="1" source="uhNhJ5nUF2RMJIGcSitU-157" target="apA25NxOXQJsWUbe7K5H-5" edge="1">
          <mxGeometry relative="1" as="geometry">
            <mxPoint x="1690" y="720" as="targetPoint" />
            <mxPoint x="1390" y="720" as="sourcePoint" />
          </mxGeometry>
        </mxCell>
        <mxCell id="apA25NxOXQJsWUbe7K5H-7" value="" style="edgeStyle=orthogonalEdgeStyle;rounded=0;orthogonalLoop=1;jettySize=auto;html=1;exitX=0.993;exitY=0.717;exitDx=0;exitDy=0;strokeColor=#B20000;align=center;verticalAlign=middle;fontFamily=Helvetica;fontSize=11;fontColor=default;labelBackgroundColor=default;endArrow=none;endFill=0;endSize=6;targetPerimeterSpacing=0;exitPerimeter=0;entryDx=0;entryDy=0;jumpStyle=arc;fillColor=#e51400;" parent="1" source="uhNhJ5nUF2RMJIGcSitU-161" target="apA25NxOXQJsWUbe7K5H-8" edge="1">
          <mxGeometry relative="1" as="geometry">
            <mxPoint x="570" y="635" as="targetPoint" />
            <Array as="points">
              <mxPoint x="1770" y="720" />
              <mxPoint x="1770" y="1010" />
              <mxPoint x="1140" y="1010" />
            </Array>
            <mxPoint x="1730" y="720" as="sourcePoint" />
          </mxGeometry>
        </mxCell>
        <mxCell id="apA25NxOXQJsWUbe7K5H-9" style="edgeStyle=orthogonalEdgeStyle;rounded=0;orthogonalLoop=1;jettySize=auto;html=1;exitX=0.5;exitY=0.5;exitDx=0;exitDy=0;exitPerimeter=0;strokeColor=#B20000;align=center;verticalAlign=middle;fontFamily=Helvetica;fontSize=11;fontColor=default;labelBackgroundColor=default;endArrow=none;endFill=0;endSize=6;targetPerimeterSpacing=0;fillColor=#e51400;" parent="1" source="apA25NxOXQJsWUbe7K5H-8" target="uhNhJ5nUF2RMJIGcSitU-215" edge="1">
          <mxGeometry relative="1" as="geometry">
            <Array as="points">
              <mxPoint x="1140" y="960" />
            </Array>
          </mxGeometry>
        </mxCell>
        <mxCell id="apA25NxOXQJsWUbe7K5H-8" value="" style="shape=waypoint;sketch=0;fillStyle=solid;size=6;pointerEvents=1;points=[[0.5,0.5,0,0,0]];fillColor=#e51400;resizable=0;rotatable=0;perimeter=centerPerimeter;snapToPoint=1;fontFamily=Helvetica;fontSize=11;fontColor=default;labelBackgroundColor=default;rounded=0;strokeColor=#B20000;align=center;verticalAlign=middle;" parent="1" vertex="1">
          <mxGeometry x="1130" y="1000" width="20" height="20" as="geometry" />
        </mxCell>
        <mxCell id="apA25NxOXQJsWUbe7K5H-12" value="" style="edgeStyle=orthogonalEdgeStyle;rounded=0;orthogonalLoop=1;jettySize=auto;html=1;exitX=1;exitY=0.5;exitDx=0;exitDy=0;entryDx=0;entryDy=0;strokeColor=#00578a;align=center;verticalAlign=middle;fontFamily=Helvetica;fontSize=11;fontColor=#00578a;labelBackgroundColor=none;endArrow=none;endFill=0;endSize=6;targetPerimeterSpacing=0;fillColor=#8cc6e3;" parent="1" source="uhNhJ5nUF2RMJIGcSitU-156" target="apA25NxOXQJsWUbe7K5H-13" edge="1">
          <mxGeometry relative="1" as="geometry">
            <Array as="points" />
            <mxPoint x="1390" y="295" as="sourcePoint" />
            <mxPoint x="1690" y="325" as="targetPoint" />
          </mxGeometry>
        </mxCell>
        <mxCell id="apA25NxOXQJsWUbe7K5H-13" value="" style="shape=waypoint;sketch=0;fillStyle=solid;size=6;pointerEvents=1;points=[[0.5,0.5,0,0,0]];fillColor=#8cc6e3;resizable=0;rotatable=0;perimeter=centerPerimeter;snapToPoint=1;fontFamily=Helvetica;fontSize=11;fontColor=#00578a;labelBackgroundColor=none;rounded=0;strokeColor=#00578a;align=center;verticalAlign=middle;" parent="1" vertex="1">
          <mxGeometry x="1420" y="285" width="20" height="20" as="geometry" />
        </mxCell>
        <mxCell id="apA25NxOXQJsWUbe7K5H-16" value="" style="edgeStyle=orthogonalEdgeStyle;rounded=0;orthogonalLoop=1;jettySize=auto;html=1;exitX=1;exitY=0.5;exitDx=0;exitDy=0;entryDx=0;entryDy=0;strokeColor=#00578a;align=center;verticalAlign=middle;fontFamily=Helvetica;fontSize=11;fontColor=#00578a;labelBackgroundColor=none;endArrow=none;endFill=0;endSize=6;targetPerimeterSpacing=0;fillColor=#8cc6e3;" parent="1" source="uhNhJ5nUF2RMJIGcSitU-155" target="apA25NxOXQJsWUbe7K5H-18" edge="1">
          <mxGeometry relative="1" as="geometry">
            <mxPoint x="1390" y="325" as="sourcePoint" />
            <mxPoint x="1540" y="480" as="targetPoint" />
          </mxGeometry>
        </mxCell>
        <mxCell id="apA25NxOXQJsWUbe7K5H-18" value="" style="shape=waypoint;sketch=0;fillStyle=solid;size=6;pointerEvents=1;points=[[0.5,0.5,0,0,0]];fillColor=#8cc6e3;resizable=0;rotatable=0;perimeter=centerPerimeter;snapToPoint=1;fontFamily=Helvetica;fontSize=11;fontColor=#00578a;labelBackgroundColor=none;rounded=0;strokeColor=#00578a;align=center;verticalAlign=middle;" parent="1" vertex="1">
          <mxGeometry x="1440" y="315" width="20" height="20" as="geometry" />
        </mxCell>
        <mxCell id="apA25NxOXQJsWUbe7K5H-24" style="edgeStyle=orthogonalEdgeStyle;rounded=0;orthogonalLoop=1;jettySize=auto;html=1;exitX=0.3;exitY=1;exitDx=10;exitDy=0;exitPerimeter=0;strokeColor=#00578a;align=center;verticalAlign=middle;fontFamily=Helvetica;fontSize=11;fontColor=#00578a;labelBackgroundColor=none;endArrow=none;endFill=0;entryX=0.328;entryY=0.547;entryDx=0;entryDy=0;entryPerimeter=0;endSize=6;targetPerimeterSpacing=0;fillColor=#8cc6e3;" parent="1" source="apA25NxOXQJsWUbe7K5H-21" target="apA25NxOXQJsWUbe7K5H-27" edge="1">
          <mxGeometry relative="1" as="geometry">
            <mxPoint x="1105.3333333333335" y="340" as="targetPoint" />
          </mxGeometry>
        </mxCell>
        <mxCell id="apA25NxOXQJsWUbe7K5H-28" value="ALUScr" style="edgeLabel;html=1;align=center;verticalAlign=middle;resizable=0;points=[];fontFamily=Helvetica;fontSize=9;fontColor=#00578a;labelBackgroundColor=default;strokeColor=default;fillColor=default;gradientColor=none;" parent="apA25NxOXQJsWUbe7K5H-24" vertex="1" connectable="0">
          <mxGeometry x="0.3702" y="1" relative="1" as="geometry">
            <mxPoint as="offset" />
          </mxGeometry>
        </mxCell>
        <mxCell id="apA25NxOXQJsWUbe7K5H-21" value="Scr" style="shadow=0;dashed=0;align=center;html=1;strokeWidth=1;shape=mxgraph.electrical.abstract.mux2;operation=demux;whiteSpace=wrap;fontFamily=Helvetica;fontSize=11;fontColor=default;labelBackgroundColor=default;direction=west;" parent="1" vertex="1">
          <mxGeometry x="1095" y="505" width="50" height="122" as="geometry" />
        </mxCell>
        <mxCell id="apA25NxOXQJsWUbe7K5H-23" style="edgeStyle=orthogonalEdgeStyle;rounded=0;orthogonalLoop=1;jettySize=auto;html=1;exitX=0;exitY=0.4583333333333333;exitDx=0;exitDy=0;exitPerimeter=0;entryX=0;entryY=0.8;entryDx=0;entryDy=0;entryPerimeter=0;strokeColor=default;align=center;verticalAlign=middle;fontFamily=Helvetica;fontSize=11;fontColor=default;labelBackgroundColor=default;endArrow=none;endFill=0;" parent="1" source="apA25NxOXQJsWUbe7K5H-21" target="uhNhJ5nUF2RMJIGcSitU-171" edge="1">
          <mxGeometry relative="1" as="geometry" />
        </mxCell>
        <mxCell id="apA25NxOXQJsWUbe7K5H-25" value="" style="edgeStyle=orthogonalEdgeStyle;rounded=0;orthogonalLoop=1;jettySize=auto;html=1;exitX=1;exitY=0.5;exitDx=0;exitDy=0;entryDx=0;entryDy=0;entryPerimeter=0;strokeColor=#00578a;align=center;verticalAlign=middle;fontFamily=Helvetica;fontSize=11;fontColor=#00578a;labelBackgroundColor=none;endArrow=none;endFill=0;endSize=6;targetPerimeterSpacing=0;fillColor=#8cc6e3;" parent="1" source="uhNhJ5nUF2RMJIGcSitU-145" target="apA25NxOXQJsWUbe7K5H-27" edge="1">
          <mxGeometry relative="1" as="geometry">
            <mxPoint x="910" y="325" as="sourcePoint" />
            <mxPoint x="1230" y="467" as="targetPoint" />
          </mxGeometry>
        </mxCell>
        <mxCell id="apA25NxOXQJsWUbe7K5H-27" value="" style="shape=waypoint;sketch=0;fillStyle=solid;size=6;pointerEvents=1;points=[[0.5,0.5,0,0,0]];fillColor=#8cc6e3;resizable=0;rotatable=0;perimeter=centerPerimeter;snapToPoint=1;fontFamily=Helvetica;fontSize=11;fontColor=#00578a;labelBackgroundColor=none;rounded=0;strokeColor=#00578a;align=center;verticalAlign=middle;" parent="1" vertex="1">
          <mxGeometry x="1095" y="315" width="20" height="20" as="geometry" />
        </mxCell>
        <mxCell id="apA25NxOXQJsWUbe7K5H-33" style="edgeStyle=orthogonalEdgeStyle;rounded=0;orthogonalLoop=1;jettySize=auto;html=1;exitX=1;exitY=0.5;exitDx=0;exitDy=-5;exitPerimeter=0;strokeColor=default;align=center;verticalAlign=middle;fontFamily=Helvetica;fontSize=11;fontColor=default;labelBackgroundColor=default;endArrow=none;endFill=0;entryX=1;entryY=0.21721311475409835;entryDx=0;entryDy=3;entryPerimeter=0;" parent="1" source="uhNhJ5nUF2RMJIGcSitU-182" target="apA25NxOXQJsWUbe7K5H-21" edge="1">
          <mxGeometry relative="1" as="geometry">
            <mxPoint x="1090" y="600" as="targetPoint" />
          </mxGeometry>
        </mxCell>
        <mxCell id="apA25NxOXQJsWUbe7K5H-38" style="edgeStyle=orthogonalEdgeStyle;rounded=0;orthogonalLoop=1;jettySize=auto;html=1;exitDx=0;exitDy=0;exitPerimeter=0;entryX=0;entryY=0.7416666666666667;entryDx=0;entryDy=3;entryPerimeter=0;strokeColor=#B20000;align=center;verticalAlign=middle;fontFamily=Helvetica;fontSize=11;fontColor=default;labelBackgroundColor=default;endArrow=none;endFill=0;jumpStyle=arc;endSize=6;targetPerimeterSpacing=0;fillColor=#e51400;" parent="1" source="apA25NxOXQJsWUbe7K5H-40" target="uhNhJ5nUF2RMJIGcSitU-181" edge="1">
          <mxGeometry relative="1" as="geometry">
            <Array as="points">
              <mxPoint x="970" y="491" />
            </Array>
          </mxGeometry>
        </mxCell>
        <mxCell id="apA25NxOXQJsWUbe7K5H-35" value="" style="edgeStyle=orthogonalEdgeStyle;rounded=0;orthogonalLoop=1;jettySize=auto;html=1;exitX=0;exitY=0.4540229885057471;exitDx=0;exitDy=0;exitPerimeter=0;entryDx=0;entryDy=0;strokeColor=#B20000;align=center;verticalAlign=middle;fontFamily=Helvetica;fontSize=11;fontColor=default;labelBackgroundColor=default;endArrow=none;endFill=0;endSize=6;targetPerimeterSpacing=0;jumpStyle=arc;fillColor=#e51400;" parent="1" source="uhNhJ5nUF2RMJIGcSitU-203" target="apA25NxOXQJsWUbe7K5H-36" edge="1">
          <mxGeometry relative="1" as="geometry">
            <Array as="points">
              <mxPoint x="1900" y="609" />
              <mxPoint x="1900" y="1030" />
            </Array>
            <mxPoint x="1880" y="609" as="sourcePoint" />
            <mxPoint x="570" y="620" as="targetPoint" />
          </mxGeometry>
        </mxCell>
        <mxCell id="apA25NxOXQJsWUbe7K5H-36" value="" style="shape=waypoint;sketch=0;fillStyle=solid;size=6;pointerEvents=1;points=[[0.5,0.5,0,0,0]];fillColor=#e51400;resizable=0;rotatable=0;perimeter=centerPerimeter;snapToPoint=1;fontFamily=Helvetica;fontSize=11;fontColor=default;labelBackgroundColor=default;rounded=0;strokeColor=#B20000;align=center;verticalAlign=middle;" parent="1" vertex="1">
          <mxGeometry x="960" y="1020" width="20" height="20" as="geometry" />
        </mxCell>
        <mxCell id="apA25NxOXQJsWUbe7K5H-40" value="" style="shape=waypoint;sketch=0;fillStyle=solid;size=6;pointerEvents=1;points=[[0.5,0.5,0,0,0]];fillColor=#e51400;resizable=0;rotatable=0;perimeter=centerPerimeter;snapToPoint=1;fontFamily=Helvetica;fontSize=11;fontColor=default;labelBackgroundColor=default;rounded=0;strokeColor=#B20000;align=center;verticalAlign=middle;" parent="1" vertex="1">
          <mxGeometry x="960" y="620" width="20" height="20" as="geometry" />
        </mxCell>
        <mxCell id="apA25NxOXQJsWUbe7K5H-41" style="edgeStyle=orthogonalEdgeStyle;rounded=0;orthogonalLoop=1;jettySize=auto;html=1;exitX=0.5;exitY=0.5;exitDx=0;exitDy=0;exitPerimeter=0;entryX=1.137;entryY=0.587;entryDx=0;entryDy=0;entryPerimeter=0;strokeColor=default;align=center;verticalAlign=middle;fontFamily=Helvetica;fontSize=11;fontColor=default;labelBackgroundColor=default;endArrow=none;endFill=0;" parent="1" source="apA25NxOXQJsWUbe7K5H-40" target="apA25NxOXQJsWUbe7K5H-40" edge="1">
          <mxGeometry relative="1" as="geometry" />
        </mxCell>
        <mxCell id="apA25NxOXQJsWUbe7K5H-42" style="edgeStyle=orthogonalEdgeStyle;rounded=0;orthogonalLoop=1;jettySize=auto;html=1;exitX=0.5;exitY=0.5;exitDx=0;exitDy=0;exitPerimeter=0;entryX=1.13;entryY=0.573;entryDx=0;entryDy=0;entryPerimeter=0;strokeColor=default;align=center;verticalAlign=middle;fontFamily=Helvetica;fontSize=11;fontColor=default;labelBackgroundColor=default;endArrow=none;endFill=0;" parent="1" source="apA25NxOXQJsWUbe7K5H-40" target="apA25NxOXQJsWUbe7K5H-40" edge="1">
          <mxGeometry relative="1" as="geometry" />
        </mxCell>
        <mxCell id="apA25NxOXQJsWUbe7K5H-44" value="" style="edgeStyle=orthogonalEdgeStyle;rounded=0;orthogonalLoop=1;jettySize=auto;html=1;exitDx=0;exitDy=0;entryDx=0;entryDy=0;entryPerimeter=0;strokeColor=default;align=center;verticalAlign=middle;fontFamily=Helvetica;fontSize=11;fontColor=default;labelBackgroundColor=default;endArrow=none;endFill=0;endSize=6;targetPerimeterSpacing=0;" parent="1" source="uhNhJ5nUF2RMJIGcSitU-198" target="apA25NxOXQJsWUbe7K5H-45" edge="1">
          <mxGeometry relative="1" as="geometry">
            <mxPoint x="1440" y="531" as="sourcePoint" />
            <mxPoint x="1390" y="531" as="targetPoint" />
            <Array as="points">
              <mxPoint x="1426" y="531" />
            </Array>
          </mxGeometry>
        </mxCell>
        <mxCell id="apA25NxOXQJsWUbe7K5H-47" style="edgeStyle=orthogonalEdgeStyle;rounded=0;orthogonalLoop=1;jettySize=auto;html=1;exitDx=0;exitDy=0;exitPerimeter=0;strokeColor=#B20000;align=center;verticalAlign=middle;fontFamily=Helvetica;fontSize=11;fontColor=default;labelBackgroundColor=default;endArrow=none;endFill=0;entryX=0;entryY=0.5297619047619048;entryDx=0;entryDy=3;entryPerimeter=0;jumpStyle=arc;endSize=6;targetPerimeterSpacing=0;fillColor=#e51400;" parent="1" source="apA25NxOXQJsWUbe7K5H-49" target="uhNhJ5nUF2RMJIGcSitU-181" edge="1">
          <mxGeometry relative="1" as="geometry">
            <mxPoint x="980" y="880" as="targetPoint" />
            <Array as="points">
              <mxPoint x="980" y="469" />
            </Array>
          </mxGeometry>
        </mxCell>
        <mxCell id="apA25NxOXQJsWUbe7K5H-88" style="edgeStyle=orthogonalEdgeStyle;rounded=0;orthogonalLoop=1;jettySize=auto;html=1;exitX=0.5;exitY=0.5;exitDx=0;exitDy=0;exitPerimeter=0;strokeColor=#B20000;align=center;verticalAlign=middle;fontFamily=Helvetica;fontSize=11;fontColor=default;labelBackgroundColor=default;endArrow=none;endFill=0;jumpStyle=none;endSize=6;targetPerimeterSpacing=0;fillColor=#e51400;" parent="1" source="apA25NxOXQJsWUbe7K5H-45" edge="1">
          <mxGeometry relative="1" as="geometry">
            <mxPoint x="1410" y="680" as="targetPoint" />
          </mxGeometry>
        </mxCell>
        <mxCell id="apA25NxOXQJsWUbe7K5H-45" value="" style="shape=waypoint;sketch=0;fillStyle=solid;size=6;pointerEvents=1;points=[[0.5,0.5,0,0,0]];fillColor=#e51400;resizable=0;rotatable=0;perimeter=centerPerimeter;snapToPoint=1;fontFamily=Helvetica;fontSize=11;fontColor=default;labelBackgroundColor=default;rounded=0;strokeColor=#B20000;align=center;verticalAlign=middle;" parent="1" vertex="1">
          <mxGeometry x="1400" y="521.5" width="20" height="20" as="geometry" />
        </mxCell>
        <mxCell id="apA25NxOXQJsWUbe7K5H-49" value="" style="shape=waypoint;sketch=0;fillStyle=solid;size=6;pointerEvents=1;points=[[0.5,0.5,0,0,0]];fillColor=#e51400;resizable=0;rotatable=0;perimeter=centerPerimeter;snapToPoint=1;fontFamily=Helvetica;fontSize=11;fontColor=default;labelBackgroundColor=default;rounded=0;strokeColor=#B20000;align=center;verticalAlign=middle;" parent="1" vertex="1">
          <mxGeometry x="970" y="598.5" width="20" height="20" as="geometry" />
        </mxCell>
        <mxCell id="apA25NxOXQJsWUbe7K5H-50" style="edgeStyle=orthogonalEdgeStyle;rounded=0;orthogonalLoop=1;jettySize=auto;html=1;exitX=0;exitY=0.5297619047619048;exitDx=0;exitDy=3;exitPerimeter=0;entryX=0.585;entryY=0.423;entryDx=0;entryDy=0;entryPerimeter=0;strokeColor=#B20000;align=center;verticalAlign=middle;fontFamily=Helvetica;fontSize=11;fontColor=default;labelBackgroundColor=default;endArrow=none;endFill=0;jumpStyle=arc;endSize=6;targetPerimeterSpacing=0;fillColor=#e51400;" parent="1" source="uhNhJ5nUF2RMJIGcSitU-182" target="apA25NxOXQJsWUbe7K5H-49" edge="1">
          <mxGeometry relative="1" as="geometry" />
        </mxCell>
        <mxCell id="apA25NxOXQJsWUbe7K5H-51" value="" style="edgeStyle=orthogonalEdgeStyle;rounded=0;orthogonalLoop=1;jettySize=auto;html=1;exitX=1;exitY=0.5;exitDx=0;exitDy=0;strokeColor=default;align=center;verticalAlign=middle;fontFamily=Helvetica;fontSize=11;fontColor=default;labelBackgroundColor=default;endArrow=none;endFill=0;endSize=6;targetPerimeterSpacing=0;orthogonal=0;snapToPoint=1;linejoin=bevel;arcSize=20;entryDx=0;entryDy=0;entryPerimeter=0;" parent="1" source="uhNhJ5nUF2RMJIGcSitU-193" target="apA25NxOXQJsWUbe7K5H-52" edge="1">
          <mxGeometry relative="1" as="geometry">
            <mxPoint x="1690" y="560" as="targetPoint" />
            <mxPoint x="1590" y="560" as="sourcePoint" />
          </mxGeometry>
        </mxCell>
        <mxCell id="apA25NxOXQJsWUbe7K5H-53" style="edgeStyle=orthogonalEdgeStyle;rounded=0;orthogonalLoop=1;jettySize=auto;html=1;exitDx=0;exitDy=0;exitPerimeter=0;strokeColor=#B20000;align=center;verticalAlign=middle;fontFamily=Helvetica;fontSize=11;fontColor=default;labelBackgroundColor=default;endArrow=none;endFill=0;jumpStyle=arc;entryX=0;entryY=0.31785714285714284;entryDx=0;entryDy=3;entryPerimeter=0;endSize=6;targetPerimeterSpacing=0;fillColor=#e51400;" parent="1" source="apA25NxOXQJsWUbe7K5H-55" target="uhNhJ5nUF2RMJIGcSitU-181" edge="1">
          <mxGeometry relative="1" as="geometry">
            <mxPoint x="990" y="740" as="targetPoint" />
            <Array as="points">
              <mxPoint x="990" y="446" />
            </Array>
          </mxGeometry>
        </mxCell>
        <mxCell id="apA25NxOXQJsWUbe7K5H-52" value="" style="shape=waypoint;sketch=0;fillStyle=solid;size=6;pointerEvents=1;points=[[0.5,0.5,0,0,0]];fillColor=#e51400;resizable=0;rotatable=0;perimeter=centerPerimeter;snapToPoint=1;fontFamily=Helvetica;fontSize=11;fontColor=default;labelBackgroundColor=default;rounded=0;strokeColor=#B20000;align=center;verticalAlign=middle;" parent="1" vertex="1">
          <mxGeometry x="1610" y="550" width="20" height="20" as="geometry" />
        </mxCell>
        <mxCell id="apA25NxOXQJsWUbe7K5H-54" value="" style="edgeStyle=orthogonalEdgeStyle;rounded=0;orthogonalLoop=1;jettySize=auto;html=1;exitDx=0;exitDy=0;exitPerimeter=0;strokeColor=#B20000;align=center;verticalAlign=middle;fontFamily=Helvetica;fontSize=11;fontColor=default;labelBackgroundColor=default;endArrow=none;endFill=0;jumpStyle=arc;entryDx=0;entryDy=3;entryPerimeter=0;endSize=6;targetPerimeterSpacing=0;fillColor=#e51400;" parent="1" source="apA25NxOXQJsWUbe7K5H-79" target="apA25NxOXQJsWUbe7K5H-55" edge="1">
          <mxGeometry relative="1" as="geometry">
            <mxPoint x="1000" y="446" as="targetPoint" />
            <mxPoint x="1620" y="560" as="sourcePoint" />
            <Array as="points">
              <mxPoint x="990" y="910" />
            </Array>
          </mxGeometry>
        </mxCell>
        <mxCell id="apA25NxOXQJsWUbe7K5H-55" value="" style="shape=waypoint;sketch=0;fillStyle=solid;size=6;pointerEvents=1;points=[[0.5,0.5,0,0,0]];fillColor=#e51400;resizable=0;rotatable=0;perimeter=centerPerimeter;snapToPoint=1;fontFamily=Helvetica;fontSize=11;fontColor=default;labelBackgroundColor=default;rounded=0;strokeColor=#B20000;align=center;verticalAlign=middle;" parent="1" vertex="1">
          <mxGeometry x="980" y="576.5" width="20" height="20" as="geometry" />
        </mxCell>
        <mxCell id="apA25NxOXQJsWUbe7K5H-31" style="edgeStyle=orthogonalEdgeStyle;rounded=0;orthogonalLoop=1;jettySize=auto;html=1;exitX=0.44999999999999996;exitY=1;exitDx=10;exitDy=0;exitPerimeter=0;strokeColor=#00578a;align=center;verticalAlign=middle;fontFamily=Helvetica;fontSize=11;fontColor=#00578a;labelBackgroundColor=none;endArrow=none;endFill=0;endSize=6;targetPerimeterSpacing=0;fillColor=#8cc6e3;" parent="1" source="uhNhJ5nUF2RMJIGcSitU-181" target="uhNhJ5nUF2RMJIGcSitU-215" edge="1">
          <mxGeometry relative="1" as="geometry">
            <mxPoint x="1072.5" y="520" as="sourcePoint" />
            <mxPoint x="1200" y="935" as="targetPoint" />
            <Array as="points">
              <mxPoint x="1033" y="520" />
              <mxPoint x="1070" y="520" />
              <mxPoint x="1070" y="760" />
              <mxPoint x="1130" y="760" />
            </Array>
          </mxGeometry>
        </mxCell>
        <mxCell id="apA25NxOXQJsWUbe7K5H-29" style="edgeStyle=orthogonalEdgeStyle;rounded=0;orthogonalLoop=1;jettySize=auto;html=1;entryX=0.15;entryY=1;entryDx=10;entryDy=0;entryPerimeter=0;strokeColor=#00578a;align=center;verticalAlign=middle;fontFamily=Helvetica;fontSize=11;fontColor=#00578a;labelBackgroundColor=none;endArrow=none;endFill=0;resizable=0;fillColor=#8cc6e3;gradientColor=none;endSize=6;targetPerimeterSpacing=0;" parent="1" source="uhNhJ5nUF2RMJIGcSitU-215" target="uhNhJ5nUF2RMJIGcSitU-182" edge="1">
          <mxGeometry relative="1" as="geometry">
            <Array as="points">
              <mxPoint x="1100" y="790" />
              <mxPoint x="1018" y="790" />
            </Array>
          </mxGeometry>
        </mxCell>
        <mxCell id="apA25NxOXQJsWUbe7K5H-30" style="edgeStyle=orthogonalEdgeStyle;rounded=0;orthogonalLoop=1;jettySize=auto;html=1;exitX=0.44999999999999996;exitY=1;exitDx=10;exitDy=0;exitPerimeter=0;strokeColor=#00578a;align=center;verticalAlign=middle;fontFamily=Helvetica;fontSize=11;fontColor=#00578a;labelBackgroundColor=none;endArrow=none;endFill=0;endSize=6;targetPerimeterSpacing=0;fillColor=#8cc6e3;" parent="1" source="uhNhJ5nUF2RMJIGcSitU-182" target="uhNhJ5nUF2RMJIGcSitU-215" edge="1">
          <mxGeometry relative="1" as="geometry">
            <Array as="points">
              <mxPoint x="1032" y="780" />
              <mxPoint x="1110" y="780" />
            </Array>
          </mxGeometry>
        </mxCell>
        <mxCell id="apA25NxOXQJsWUbe7K5H-32" style="edgeStyle=orthogonalEdgeStyle;rounded=0;orthogonalLoop=1;jettySize=auto;html=1;exitX=0.15;exitY=1;exitDx=10;exitDy=0;exitPerimeter=0;strokeColor=#00578a;align=center;verticalAlign=middle;fontFamily=Helvetica;fontSize=11;fontColor=#00578a;labelBackgroundColor=none;endArrow=none;endFill=0;endSize=6;targetPerimeterSpacing=0;fillColor=#8cc6e3;" parent="1" source="uhNhJ5nUF2RMJIGcSitU-181" target="uhNhJ5nUF2RMJIGcSitU-215" edge="1">
          <mxGeometry relative="1" as="geometry">
            <Array as="points">
              <mxPoint x="1018" y="530" />
              <mxPoint x="1060" y="530" />
              <mxPoint x="1060" y="770" />
              <mxPoint x="1120" y="770" />
            </Array>
          </mxGeometry>
        </mxCell>
        <mxCell id="apA25NxOXQJsWUbe7K5H-1" style="edgeStyle=orthogonalEdgeStyle;rounded=0;orthogonalLoop=1;jettySize=auto;html=1;exitX=0.999;exitY=0.744;exitDx=0;exitDy=0;exitPerimeter=0;endArrow=none;endFill=0;strokeColor=#B20000;align=center;verticalAlign=middle;fontFamily=Helvetica;fontSize=11;fontColor=default;labelBackgroundColor=default;endSize=6;targetPerimeterSpacing=0;fillColor=#e51400;" parent="1" source="uhNhJ5nUF2RMJIGcSitU-58" target="uhNhJ5nUF2RMJIGcSitU-215" edge="1">
          <mxGeometry relative="1" as="geometry">
            <mxPoint x="1040" y="743" as="targetPoint" />
            <Array as="points">
              <mxPoint x="950" y="740" />
              <mxPoint x="950" y="950" />
            </Array>
          </mxGeometry>
        </mxCell>
        <mxCell id="apA25NxOXQJsWUbe7K5H-2" style="edgeStyle=orthogonalEdgeStyle;rounded=0;orthogonalLoop=1;jettySize=auto;html=1;endArrow=none;endFill=0;strokeColor=#B20000;align=center;verticalAlign=middle;fontFamily=Helvetica;fontSize=11;fontColor=default;labelBackgroundColor=default;endSize=6;targetPerimeterSpacing=0;fillColor=#e51400;" parent="1" source="uhNhJ5nUF2RMJIGcSitU-58" target="uhNhJ5nUF2RMJIGcSitU-215" edge="1">
          <mxGeometry relative="1" as="geometry">
            <mxPoint x="960" y="780" as="targetPoint" />
            <Array as="points">
              <mxPoint x="930" y="760" />
              <mxPoint x="930" y="970" />
            </Array>
          </mxGeometry>
        </mxCell>
        <mxCell id="apA25NxOXQJsWUbe7K5H-39" value="" style="edgeStyle=orthogonalEdgeStyle;rounded=0;orthogonalLoop=1;jettySize=auto;html=1;exitX=0.5;exitY=0.5;exitDx=0;exitDy=0;exitPerimeter=0;entryDx=0;entryDy=3;entryPerimeter=0;strokeColor=#B20000;align=center;verticalAlign=middle;fontFamily=Helvetica;fontSize=11;fontColor=default;labelBackgroundColor=default;endArrow=none;endFill=0;jumpStyle=arc;endSize=6;targetPerimeterSpacing=0;fillColor=#e51400;" parent="1" source="apA25NxOXQJsWUbe7K5H-36" target="apA25NxOXQJsWUbe7K5H-40" edge="1">
          <mxGeometry relative="1" as="geometry">
            <mxPoint x="990" y="1030" as="sourcePoint" />
            <mxPoint x="1000" y="491" as="targetPoint" />
            <Array as="points">
              <mxPoint x="970" y="631" />
            </Array>
          </mxGeometry>
        </mxCell>
        <mxCell id="apA25NxOXQJsWUbe7K5H-57" value="Hazard Detection Unit" style="rounded=1;whiteSpace=wrap;html=1;fontFamily=Helvetica;fontSize=11;fontColor=#00578a;labelBackgroundColor=none;arcSize=27;strokeColor=#00578a;align=center;verticalAlign=middle;fillColor=#8cc6e3;" parent="1" vertex="1">
          <mxGeometry x="425" y="130" width="120" height="60" as="geometry" />
        </mxCell>
        <mxCell id="apA25NxOXQJsWUbe7K5H-72" value="" style="edgeStyle=orthogonalEdgeStyle;rounded=0;orthogonalLoop=1;jettySize=auto;html=1;exitX=1;exitY=0;exitDx=0;exitDy=0;entryDx=10;entryDy=0;entryPerimeter=0;strokeColor=#00578a;align=center;verticalAlign=middle;fontFamily=Helvetica;fontSize=11;fontColor=#00578a;labelBackgroundColor=none;endArrow=none;endFill=0;endSize=6;targetPerimeterSpacing=0;fillColor=#8cc6e3;" parent="1" source="uhNhJ5nUF2RMJIGcSitU-140" target="apA25NxOXQJsWUbe7K5H-74" edge="1">
          <mxGeometry relative="1" as="geometry">
            <Array as="points">
              <mxPoint x="690" y="271" />
              <mxPoint x="690" y="230" />
            </Array>
            <mxPoint x="663" y="271" as="sourcePoint" />
            <mxPoint x="120" y="520" as="targetPoint" />
          </mxGeometry>
        </mxCell>
        <mxCell id="apA25NxOXQJsWUbe7K5H-73" value="Branch" style="edgeLabel;html=1;align=center;verticalAlign=middle;resizable=0;points=[];strokeColor=default;fontFamily=Helvetica;fontSize=9;fontColor=#00578a;labelBackgroundColor=default;fillColor=default;gradientColor=none;" parent="apA25NxOXQJsWUbe7K5H-72" vertex="1" connectable="0">
          <mxGeometry x="-0.8975" y="-1" relative="1" as="geometry">
            <mxPoint x="14" y="-22" as="offset" />
          </mxGeometry>
        </mxCell>
        <mxCell id="apA25NxOXQJsWUbe7K5H-75" style="edgeStyle=orthogonalEdgeStyle;rounded=0;orthogonalLoop=1;jettySize=auto;html=1;exitX=0.5;exitY=0.5;exitDx=0;exitDy=0;exitPerimeter=0;strokeColor=#00578a;align=center;verticalAlign=middle;fontFamily=Helvetica;fontSize=11;fontColor=#00578a;labelBackgroundColor=none;endArrow=none;endFill=0;endSize=6;targetPerimeterSpacing=0;fillColor=#8cc6e3;" parent="1" source="apA25NxOXQJsWUbe7K5H-74" target="apA25NxOXQJsWUbe7K5H-57" edge="1">
          <mxGeometry relative="1" as="geometry">
            <Array as="points">
              <mxPoint x="480" y="200" />
              <mxPoint x="480" y="200" />
            </Array>
          </mxGeometry>
        </mxCell>
        <mxCell id="apA25NxOXQJsWUbe7K5H-74" value="" style="shape=waypoint;sketch=0;fillStyle=solid;size=6;pointerEvents=1;points=[[0.5,0.5,0,0,0]];fillColor=#8cc6e3;resizable=0;rotatable=0;perimeter=centerPerimeter;snapToPoint=1;fontFamily=Helvetica;fontSize=11;fontColor=#00578a;labelBackgroundColor=none;strokeColor=#00578a;align=center;verticalAlign=middle;" parent="1" vertex="1">
          <mxGeometry x="470" y="220" width="20" height="20" as="geometry" />
        </mxCell>
        <mxCell id="apA25NxOXQJsWUbe7K5H-76" value="FwWD" style="shadow=0;dashed=0;align=center;html=1;strokeWidth=1;shape=mxgraph.electrical.abstract.mux2;whiteSpace=wrap;fontFamily=Helvetica;fontSize=11;fontColor=default;labelBackgroundColor=default;" parent="1" vertex="1">
          <mxGeometry x="1282" y="635" width="48" height="80" as="geometry" />
        </mxCell>
        <mxCell id="apA25NxOXQJsWUbe7K5H-77" style="edgeStyle=orthogonalEdgeStyle;rounded=0;orthogonalLoop=1;jettySize=auto;html=1;exitX=1;exitY=0.5;exitDx=0;exitDy=-5;exitPerimeter=0;entryX=-0.003;entryY=0.614;entryDx=0;entryDy=0;entryPerimeter=0;strokeColor=default;align=center;verticalAlign=middle;fontFamily=Helvetica;fontSize=11;fontColor=default;labelBackgroundColor=default;endArrow=none;endFill=0;" parent="1" source="apA25NxOXQJsWUbe7K5H-76" target="uhNhJ5nUF2RMJIGcSitU-157" edge="1">
          <mxGeometry relative="1" as="geometry" />
        </mxCell>
        <mxCell id="apA25NxOXQJsWUbe7K5H-79" value="" style="shape=waypoint;sketch=0;fillStyle=solid;size=6;pointerEvents=1;points=[[0.5,0.5,0,0,0]];fillColor=#e51400;resizable=0;rotatable=0;perimeter=centerPerimeter;snapToPoint=1;fontFamily=Helvetica;fontSize=11;fontColor=default;labelBackgroundColor=default;rounded=0;strokeColor=#B20000;align=center;verticalAlign=middle;" parent="1" vertex="1">
          <mxGeometry x="1245" y="900" width="20" height="20" as="geometry" />
        </mxCell>
        <mxCell id="apA25NxOXQJsWUbe7K5H-80" style="edgeStyle=orthogonalEdgeStyle;rounded=0;orthogonalLoop=1;jettySize=auto;html=1;exitX=0.5;exitY=0.5;exitDx=0;exitDy=0;exitPerimeter=0;entryX=0;entryY=0.6000000000000001;entryDx=0;entryDy=3;entryPerimeter=0;strokeColor=#B20000;align=center;verticalAlign=middle;fontFamily=Helvetica;fontSize=11;fontColor=default;labelBackgroundColor=default;endArrow=none;endFill=0;jumpStyle=arc;endSize=6;targetPerimeterSpacing=0;fillColor=#e51400;" parent="1" source="apA25NxOXQJsWUbe7K5H-79" target="apA25NxOXQJsWUbe7K5H-76" edge="1">
          <mxGeometry relative="1" as="geometry">
            <Array as="points">
              <mxPoint x="1255" y="686" />
            </Array>
          </mxGeometry>
        </mxCell>
        <mxCell id="apA25NxOXQJsWUbe7K5H-81" style="edgeStyle=orthogonalEdgeStyle;rounded=0;orthogonalLoop=1;jettySize=auto;html=1;exitX=0.2916666666666667;exitY=1;exitDx=10;exitDy=0;exitPerimeter=0;strokeColor=#00578a;align=center;verticalAlign=middle;fontFamily=Helvetica;fontSize=11;fontColor=#00578a;labelBackgroundColor=none;endArrow=none;endFill=0;endSize=6;targetPerimeterSpacing=0;fillColor=#8cc6e3;" parent="1" source="apA25NxOXQJsWUbe7K5H-76" target="uhNhJ5nUF2RMJIGcSitU-215" edge="1">
          <mxGeometry relative="1" as="geometry">
            <Array as="points">
              <mxPoint x="1306" y="822" />
              <mxPoint x="1180" y="822" />
            </Array>
          </mxGeometry>
        </mxCell>
        <mxCell id="apA25NxOXQJsWUbe7K5H-19" style="edgeStyle=orthogonalEdgeStyle;rounded=0;orthogonalLoop=1;jettySize=auto;html=1;exitX=0.5;exitY=0.5;exitDx=0;exitDy=0;exitPerimeter=0;strokeColor=#00578a;align=center;verticalAlign=middle;fontFamily=Helvetica;fontSize=11;fontColor=#00578a;labelBackgroundColor=none;endArrow=none;endFill=0;endSize=6;targetPerimeterSpacing=0;fillColor=#8cc6e3;" parent="1" source="apA25NxOXQJsWUbe7K5H-18" target="uhNhJ5nUF2RMJIGcSitU-215" edge="1">
          <mxGeometry relative="1" as="geometry">
            <mxPoint x="1449.9459459459458" y="350" as="targetPoint" />
            <Array as="points">
              <mxPoint x="1450" y="970" />
            </Array>
          </mxGeometry>
        </mxCell>
        <mxCell id="apA25NxOXQJsWUbe7K5H-20" value="MemToReg" style="edgeLabel;html=1;align=center;verticalAlign=middle;resizable=0;points=[];fontFamily=Helvetica;fontSize=9;fontColor=#00578a;labelBackgroundColor=default;strokeColor=default;fillColor=default;gradientColor=none;" parent="apA25NxOXQJsWUbe7K5H-19" vertex="1" connectable="0">
          <mxGeometry x="0.8178" relative="1" as="geometry">
            <mxPoint as="offset" />
          </mxGeometry>
        </mxCell>
        <mxCell id="apA25NxOXQJsWUbe7K5H-14" style="edgeStyle=orthogonalEdgeStyle;rounded=0;orthogonalLoop=1;jettySize=auto;html=1;exitX=0.5;exitY=0.5;exitDx=0;exitDy=0;exitPerimeter=0;strokeColor=#00578a;align=center;verticalAlign=middle;fontFamily=Helvetica;fontSize=11;fontColor=#00578a;labelBackgroundColor=none;endArrow=none;endFill=0;endSize=6;targetPerimeterSpacing=0;fillColor=#8cc6e3;" parent="1" source="apA25NxOXQJsWUbe7K5H-13" target="uhNhJ5nUF2RMJIGcSitU-215" edge="1">
          <mxGeometry relative="1" as="geometry">
            <Array as="points">
              <mxPoint x="1430" y="960" />
            </Array>
          </mxGeometry>
        </mxCell>
        <mxCell id="apA25NxOXQJsWUbe7K5H-15" value="RegWrite" style="edgeLabel;html=1;align=center;verticalAlign=middle;resizable=0;points=[];fontFamily=Helvetica;fontSize=9;fontColor=#00578a;labelBackgroundColor=default;strokeColor=default;fillColor=default;gradientColor=none;" parent="apA25NxOXQJsWUbe7K5H-14" vertex="1" connectable="0">
          <mxGeometry x="0.6305" relative="1" as="geometry">
            <mxPoint as="offset" />
          </mxGeometry>
        </mxCell>
        <mxCell id="apA25NxOXQJsWUbe7K5H-5" value="" style="shape=waypoint;sketch=0;fillStyle=solid;size=6;pointerEvents=1;points=[[0.5,0.5,0,0,0]];fillColor=#e51400;resizable=0;rotatable=0;perimeter=centerPerimeter;snapToPoint=1;fontFamily=Helvetica;fontSize=11;fontColor=default;labelBackgroundColor=default;rounded=0;strokeColor=#B20000;align=center;verticalAlign=middle;" parent="1" vertex="1">
          <mxGeometry x="1410" y="710" width="20" height="20" as="geometry" />
        </mxCell>
        <mxCell id="uhNhJ5nUF2RMJIGcSitU-74" style="edgeStyle=orthogonalEdgeStyle;rounded=0;orthogonalLoop=1;jettySize=auto;html=1;exitX=1;exitY=0.5;exitDx=0;exitDy=0;exitPerimeter=0;entryX=1;entryY=0.65;entryDx=0;entryDy=3;entryPerimeter=0;strokeColor=#B20000;align=center;verticalAlign=middle;fontFamily=Helvetica;fontSize=11;fontColor=default;labelBackgroundColor=default;endArrow=none;endFill=0;endSize=6;targetPerimeterSpacing=0;fillColor=#e51400;" parent="1" source="uhNhJ5nUF2RMJIGcSitU-61" target="uhNhJ5nUF2RMJIGcSitU-1" edge="1">
          <mxGeometry relative="1" as="geometry">
            <Array as="points">
              <mxPoint x="535" y="304" />
              <mxPoint x="535" y="260" />
              <mxPoint x="90" y="260" />
              <mxPoint x="90" y="559" />
            </Array>
          </mxGeometry>
        </mxCell>
        <mxCell id="uhNhJ5nUF2RMJIGcSitU-109" value="BranchAddr" style="edgeLabel;html=1;align=center;verticalAlign=middle;resizable=0;points=[];strokeColor=default;fontFamily=Helvetica;fontSize=9;fontColor=#ff0000;labelBackgroundColor=default;fillColor=default;" parent="uhNhJ5nUF2RMJIGcSitU-74" vertex="1" connectable="0">
          <mxGeometry x="-0.8994" relative="1" as="geometry">
            <mxPoint as="offset" />
          </mxGeometry>
        </mxCell>
        <mxCell id="uhNhJ5nUF2RMJIGcSitU-57" style="edgeStyle=orthogonalEdgeStyle;rounded=0;orthogonalLoop=1;jettySize=auto;html=1;exitX=1;exitY=0.5;exitDx=0;exitDy=0;exitPerimeter=0;entryX=1;entryY=0.21666666666666667;entryDx=0;entryDy=3;entryPerimeter=0;strokeColor=default;align=center;verticalAlign=middle;fontFamily=Helvetica;fontSize=11;fontColor=default;labelBackgroundColor=default;endArrow=none;endFill=0;endSize=6;targetPerimeterSpacing=0;" parent="1" source="uhNhJ5nUF2RMJIGcSitU-50" target="uhNhJ5nUF2RMJIGcSitU-1" edge="1">
          <mxGeometry relative="1" as="geometry">
            <Array as="points">
              <mxPoint x="305" y="435" />
              <mxPoint x="305" y="400" />
              <mxPoint x="80" y="400" />
              <mxPoint x="80" y="611" />
            </Array>
          </mxGeometry>
        </mxCell>
        <mxCell id="uhNhJ5nUF2RMJIGcSitU-218" style="edgeStyle=orthogonalEdgeStyle;rounded=0;orthogonalLoop=1;jettySize=auto;html=1;exitX=0.5;exitY=0.5;exitDx=0;exitDy=0;exitPerimeter=0;strokeColor=default;align=center;verticalAlign=middle;fontFamily=Helvetica;fontSize=11;fontColor=default;labelBackgroundColor=default;endArrow=none;endFill=0;endSize=6;targetPerimeterSpacing=0;entryX=0;entryY=0.2;entryDx=0;entryDy=3;entryPerimeter=0;jumpStyle=none;" parent="1" source="uhNhJ5nUF2RMJIGcSitU-217" target="apA25NxOXQJsWUbe7K5H-76" edge="1">
          <mxGeometry relative="1" as="geometry">
            <mxPoint x="1340" y="670" as="targetPoint" />
            <Array as="points">
              <mxPoint x="960" y="670" />
              <mxPoint x="1275" y="670" />
            </Array>
          </mxGeometry>
        </mxCell>
        <mxCell id="uhNhJ5nUF2RMJIGcSitU-216" value="" style="edgeStyle=orthogonalEdgeStyle;rounded=0;orthogonalLoop=1;jettySize=auto;html=1;exitX=0;exitY=0.10595238095238095;exitDx=0;exitDy=3;exitPerimeter=0;strokeColor=default;align=center;verticalAlign=middle;fontFamily=Helvetica;fontSize=11;fontColor=default;labelBackgroundColor=default;endArrow=none;endFill=0;endSize=6;targetPerimeterSpacing=0;entryDx=0;entryDy=0;entryPerimeter=0;" parent="1" source="uhNhJ5nUF2RMJIGcSitU-182" target="uhNhJ5nUF2RMJIGcSitU-217" edge="1">
          <mxGeometry relative="1" as="geometry">
            <mxPoint x="1000" y="564" as="sourcePoint" />
            <mxPoint x="910" y="621" as="targetPoint" />
            <Array as="points" />
          </mxGeometry>
        </mxCell>
        <mxCell id="apA25NxOXQJsWUbe7K5H-34" style="edgeStyle=orthogonalEdgeStyle;rounded=0;orthogonalLoop=1;jettySize=auto;html=1;exitX=1;exitY=0.6516393442622951;exitDx=0;exitDy=3;exitPerimeter=0;entryX=0.994;entryY=0.67;entryDx=0;entryDy=0;entryPerimeter=0;strokeColor=default;align=center;verticalAlign=middle;fontFamily=Helvetica;fontSize=11;fontColor=default;labelBackgroundColor=default;endArrow=none;endFill=0;jumpStyle=none;" parent="1" source="apA25NxOXQJsWUbe7K5H-21" target="uhNhJ5nUF2RMJIGcSitU-58" edge="1">
          <mxGeometry relative="1" as="geometry">
            <Array as="points">
              <mxPoint x="940" y="545" />
              <mxPoint x="940" y="700" />
            </Array>
          </mxGeometry>
        </mxCell>
        <mxCell id="uhNhJ5nUF2RMJIGcSitU-178" style="edgeStyle=orthogonalEdgeStyle;rounded=0;orthogonalLoop=1;jettySize=auto;html=1;exitDx=0;exitDy=3;exitPerimeter=0;strokeColor=default;align=center;verticalAlign=middle;fontFamily=Helvetica;fontSize=11;fontColor=default;labelBackgroundColor=default;endArrow=none;endFill=0;endSize=6;targetPerimeterSpacing=0;entryX=0.999;entryY=0.522;entryDx=0;entryDy=0;entryPerimeter=0;jumpStyle=arc;" parent="1" source="uhNhJ5nUF2RMJIGcSitU-217" target="uhNhJ5nUF2RMJIGcSitU-58" edge="1">
          <mxGeometry relative="1" as="geometry">
            <mxPoint x="1000" y="634.6249999999999" as="sourcePoint" />
            <mxPoint x="910" y="620" as="targetPoint" />
            <Array as="points">
              <mxPoint x="920" y="564" />
              <mxPoint x="920" y="621" />
            </Array>
          </mxGeometry>
        </mxCell>
        <mxCell id="uhNhJ5nUF2RMJIGcSitU-191" style="edgeStyle=orthogonalEdgeStyle;rounded=0;orthogonalLoop=1;jettySize=auto;html=1;exitX=1.002;exitY=0.707;exitDx=0;exitDy=0;strokeColor=default;align=center;verticalAlign=middle;fontFamily=Helvetica;fontSize=11;fontColor=default;labelBackgroundColor=default;endArrow=none;endFill=0;endSize=6;targetPerimeterSpacing=0;exitPerimeter=0;entryX=-0.003;entryY=0.707;entryDx=0;entryDy=0;entryPerimeter=0;" parent="1" source="uhNhJ5nUF2RMJIGcSitU-58" target="uhNhJ5nUF2RMJIGcSitU-157" edge="1">
          <mxGeometry relative="1" as="geometry">
            <mxPoint x="1340" y="720" as="targetPoint" />
            <mxPoint x="920" y="720.145" as="sourcePoint" />
            <Array as="points" />
          </mxGeometry>
        </mxCell>
        <mxCell id="apA25NxOXQJsWUbe7K5H-89" value="" style="edgeStyle=orthogonalEdgeStyle;rounded=0;orthogonalLoop=1;jettySize=auto;html=1;exitX=1;exitY=0.5;exitDx=0;exitDy=0;entryDx=10;entryDy=0;entryPerimeter=0;strokeColor=#00578a;align=center;verticalAlign=middle;fontFamily=Helvetica;fontSize=11;fontColor=#00578a;labelBackgroundColor=none;endArrow=none;endFill=0;endSize=6;targetPerimeterSpacing=0;resizable=0;fillColor=#8cc6e3;gradientColor=none;" parent="1" source="uhNhJ5nUF2RMJIGcSitU-160" target="apA25NxOXQJsWUbe7K5H-91" edge="1">
          <mxGeometry relative="1" as="geometry">
            <mxPoint x="1730" y="325" as="sourcePoint" />
            <mxPoint x="1855" y="550" as="targetPoint" />
          </mxGeometry>
        </mxCell>
        <mxCell id="apA25NxOXQJsWUbe7K5H-91" value="" style="shape=waypoint;sketch=0;fillStyle=solid;size=6;pointerEvents=1;points=[[0.5,0.5,0,0,0]];fillColor=#8cc6e3;resizable=0;rotatable=0;perimeter=centerPerimeter;snapToPoint=1;fontFamily=Helvetica;fontSize=11;fontColor=#00578a;labelBackgroundColor=none;rounded=0;strokeColor=#00578a;align=center;verticalAlign=middle;gradientColor=none;" parent="1" vertex="1">
          <mxGeometry x="1760" y="315" width="20" height="20" as="geometry" />
        </mxCell>
        <mxCell id="apA25NxOXQJsWUbe7K5H-86" style="edgeStyle=orthogonalEdgeStyle;rounded=0;orthogonalLoop=1;jettySize=auto;html=1;entryX=0.5;entryY=0;entryDx=0;entryDy=0;strokeColor=#00578a;align=center;verticalAlign=middle;fontFamily=Helvetica;fontSize=11;fontColor=#00578a;labelBackgroundColor=none;endArrow=none;endFill=0;endSize=6;targetPerimeterSpacing=0;fillColor=#8cc6e3;exitX=0.533;exitY=0.345;exitDx=0;exitDy=0;exitPerimeter=0;jumpStyle=arc;" parent="1" source="apA25NxOXQJsWUbe7K5H-91" target="uhNhJ5nUF2RMJIGcSitU-81" edge="1">
          <mxGeometry relative="1" as="geometry">
            <mxPoint x="1777.0588235294117" y="310" as="sourcePoint" />
            <Array as="points">
              <mxPoint x="1770" y="210" />
              <mxPoint x="820" y="210" />
              <mxPoint x="820" y="430" />
              <mxPoint x="630" y="430" />
            </Array>
          </mxGeometry>
        </mxCell>
        <mxCell id="apA25NxOXQJsWUbe7K5H-87" value="RegWrite" style="edgeLabel;html=1;align=center;verticalAlign=middle;resizable=0;points=[];fontFamily=Helvetica;fontSize=9;fontColor=#00578a;labelBackgroundColor=default;strokeColor=default;fillColor=default;gradientColor=none;" parent="apA25NxOXQJsWUbe7K5H-86" vertex="1" connectable="0">
          <mxGeometry x="-0.2979" y="-2" relative="1" as="geometry">
            <mxPoint x="-8" as="offset" />
          </mxGeometry>
        </mxCell>
      </root>
    </mxGraphModel>
  </diagram>
</mxfile>
